<svg width="306" height="240" viewBox="0 0 306 240" fill="none" xmlns="http://www.w3.org/2000/svg">
<path d="M78.1742 26.6614C134.356 61.9254 223.271 84.133 277.2 80.4559C276.035 111.78 255.82 159.556 208.466 165.923L177.478 165.761C160.399 164.795 140.147 162.059 126.377 155.6L99.5276 140.128C55.1851 111.715 63.4004 54.3075 78.1742 26.6614Z" fill="#F4EA9B"/>
<path d="M215.164 146.971L240.444 125.281C234.125 119.464 190.742 87.2499 186.608 67.834C182.029 68.3699 179.237 74.112 175.9 68.5346C175.816 68.365 175.723 68.1926 175.606 68.0162C175.177 67.3675 174.422 66.6658 172.539 65.8568C172.11 66.3453 171.664 66.8929 171.205 67.4949L166.586 64.2475C141.569 71.8847 117.63 73.4201 87.1473 93.6065C90.9988 109.049 94.9889 115.709 107.139 122.106C114.402 115.584 144.302 94.0492 164.142 78.7821C153.698 97.732 140.96 128.618 137.237 141.158L175.321 148.611C176.443 133.759 177.706 111.13 179.253 91.1823C187.195 112.446 204.817 137.632 215.164 146.971Z" fill="#EEC959"/>
<path d="M153.367 163.809C247.767 185.199 274.598 119.637 275.823 85.5611L248.927 83.7675C246.82 108.448 221.702 154.2 157.022 140.154C97.8082 127.296 85.3548 71.4128 99.9226 40.7551L74.2462 31.077C64.2901 64.8313 45.403 139.345 153.367 163.809Z" fill="#F3AA43"/>
<path d="M61.0872 105.242L65.7897 107.756L92.6389 123.228C92.6389 123.228 81.8425 149.301 63.7115 149.464C40.8389 149.671 18.0484 128.337 20.9727 109.413C23.8971 90.4901 50.6281 93.2883 61.0872 105.242Z" fill="#F3AA43"/>
<path d="M79.1783 100.553C85.5784 113.9 88.8295 118.857 99.5145 130.045L73.9204 139.468C78.2353 130.475 78.0842 121.259 67.8382 122.144L79.1783 100.553Z" fill="#93463F"/>
<path d="M211.363 179.972L208.087 162.635L176.989 163.371C176.989 163.371 168.132 202.797 183.712 212.073C203.366 223.774 236.979 216.327 244.436 198.691C250.909 183.382 227.391 175.628 211.363 179.972Z" fill="#F3AA43"/>
<path d="M177.92 160.858C190.351 161.708 202.119 159.711 211.655 157.241L205.183 180.02C198.032 170.567 187.376 175.05 181.371 184.852L177.92 160.858Z" fill="#93463F"/>
<path d="M78.1766 26.6622C134.358 61.9262 223.273 84.1338 277.202 80.4567C278.377 129.082 237.726 155.285 209.915 164.782L211.193 179.102C229.912 175.075 255.842 184.77 245.83 199.451C239.603 208.582 201.698 223 182.069 213.546C170.811 208.123 175.967 177.979 177.968 167.597C153.259 167.769 120.536 158.321 93.6517 132.54C93.6517 132.54 68.3712 155.94 51.273 149.906C35.5567 144.359 14.7428 121 25.6295 105.756C39.1481 86.8277 59.2981 98.9619 66.3288 116.019L76.3143 110.766C69.4685 87.4632 61.7541 52.8164 78.1766 26.6622Z" stroke="#2C2936" stroke-width="13.3544" stroke-linecap="round" stroke-linejoin="round"/>
<path d="M105.995 73.8977C108.62 81.9952 114.926 91.0677 120.41 95.1282" stroke="#2C2936" stroke-width="15.2786" stroke-linecap="round"/>
<path d="M222.826 116.419C215.083 119.041 204.985 121.139 195.411 120.882" stroke="#2C2936" stroke-width="15.2786" stroke-linecap="round"/>
<path d="M134.397 109.061C111.096 112.222 131.564 131.585 154.95 136.802C173.757 140.997 187.224 132.346 179.7 121.201C176.311 116.18 164.469 120.887 156.414 117.909C150.329 115.658 140.506 108.232 134.397 109.061Z" fill="white"/>
<path d="M153.765 114.33C152.716 119.04 148.55 129.118 146.837 133" stroke="#CFD6DC" stroke-width="11.8834"/>
<path d="M135.521 108.222C117.922 116.524 137.645 134.821 150.73 137.519C167.801 141.039 179.314 134.43 175.832 121.632C173.942 114.686 164.542 119.932 154.923 116.406C147.658 113.743 142.18 105.081 135.521 108.222Z" stroke="#2C2936" stroke-width="13.581" stroke-linecap="round"/>
</svg>
