<svg width="306" height="243" viewBox="0 0 306 243" fill="none" xmlns="http://www.w3.org/2000/svg">
<g clip-path="url(#clip0_128_3860)">
<path d="M227.481 29.2689C168.346 66.387 74.7558 89.7622 17.9916 85.8918C19.2181 118.863 40.4955 169.15 90.3398 175.852L122.956 175.682C140.934 174.665 162.251 171.786 176.745 164.986L205.005 148.702C251.679 118.794 243.032 58.3685 227.481 29.2689Z" fill="#CEE078"/>
<path d="M83.2903 155.904L56.682 133.074C63.3334 126.951 108.996 93.0431 113.348 72.6063C118.168 73.1704 121.106 79.2143 124.619 73.3438C124.708 73.1653 124.805 72.9838 124.928 72.7981C125.38 72.1153 126.175 71.3767 128.156 70.5251C128.609 71.0394 129.077 71.6157 129.561 72.2494L134.423 68.8313C160.755 76.87 185.953 78.4861 218.038 99.7338C213.984 115.989 209.784 122.998 196.996 129.732C189.35 122.867 157.878 100.2 136.995 84.13C147.989 104.076 161.396 136.586 165.315 149.785L125.228 157.63C124.048 141.997 122.718 118.179 121.09 97.1822C112.73 119.564 94.1821 146.074 83.2903 155.904Z" fill="#98CE5A"/>
<path d="M148.338 173.625C48.9746 196.14 20.7323 127.131 19.4429 91.2636L47.753 89.3756C49.9714 115.354 76.4092 163.511 144.49 148.727C206.817 135.193 219.926 76.3714 204.592 44.1018L231.618 33.9148C242.098 69.4438 261.978 147.875 148.338 173.625Z" fill="#428C6F"/>
<path d="M245.468 111.981L240.518 114.628L212.257 130.913C212.257 130.913 223.621 158.357 242.706 158.529C266.781 158.746 290.77 136.29 287.691 116.372C284.613 96.4539 256.477 99.3993 245.468 111.981Z" fill="#428C6F"/>
<path d="M226.425 107.043C219.688 121.091 216.266 126.31 205.019 138.085L231.959 148.004C227.417 138.538 227.576 128.838 238.361 129.77L226.425 107.043Z" fill="#325D55"/>
<path d="M87.2931 190.639L90.7421 172.391L123.475 173.165C123.475 173.165 132.798 214.665 116.399 224.428C95.7113 236.744 60.3304 228.906 52.4814 210.342C45.668 194.228 70.4233 186.067 87.2931 190.639Z" fill="#428C6F"/>
<path d="M122.493 170.521C109.408 171.416 97.0214 169.314 86.9841 166.714L93.7971 190.691C101.324 180.74 112.54 185.459 118.861 195.777L122.493 170.521Z" fill="#325D55"/>
<path d="M227.481 29.2689C168.346 66.387 74.7556 89.7621 17.9914 85.8917C16.7549 137.074 59.5436 164.655 88.8165 174.651L87.471 189.723C67.7676 185.485 40.4749 195.69 51.0132 211.142C57.5677 220.753 97.4655 235.93 118.126 225.978C129.977 220.27 124.55 188.541 122.443 177.614C148.451 177.795 182.895 167.85 211.192 140.714C211.192 140.714 237.802 165.344 255.799 158.992C272.342 153.154 294.25 128.567 282.791 112.522C268.562 92.5977 247.352 105.37 239.952 123.324L229.441 117.795C236.647 93.2666 244.767 56.7982 227.481 29.2689Z" stroke="#222123" stroke-width="14.8381" stroke-linecap="round" stroke-linejoin="round"/>
<path d="M113.699 119C115.635 124.806 111.891 128.296 104.068 130.411C96.2438 132.526 86.9275 131.739 84.9857 124.555C83.3901 118.652 89.2096 110.534 97.2219 108.584C105.094 106.669 111.933 113.703 113.699 119Z" fill="#222123"/>
<path d="M131.123 127.699C138.221 132.421 148.447 127.82 150.455 121.032" stroke="#222123" stroke-width="14.8381" stroke-linecap="round"/>
<path d="M186.297 91.7918C188.406 98.0725 185.214 103.031 178.894 106.478C172.053 110.208 165.142 109.243 161.931 103.447C158.671 97.5614 160.498 89.3859 167.775 86.2766C175.556 82.9518 184.188 85.5111 186.297 91.7918Z" fill="#222123"/>
</g>
<defs>
<clipPath id="clip0_128_3860">
<rect width="306" height="243" fill="white" transform="matrix(-1 0 0 1 306 0)"/>
</clipPath>
</defs>
</svg>
