<svg width="297" height="232" viewBox="0 0 297 232" fill="none" xmlns="http://www.w3.org/2000/svg">
<g clip-path="url(#clip0_128_3324)">
<path d="M222.347 16.4212C162.241 54.1482 67.1157 77.9068 9.42041 73.9729C10.6671 107.485 32.2935 158.597 82.9554 165.409L116.107 165.236C134.379 164.203 156.046 161.276 170.778 154.365L199.502 137.813C246.941 107.415 238.152 45.9982 222.347 16.4212Z" fill="#F4EA9B"/>
<path d="M75.7884 145.133L48.7436 121.928C55.5041 115.705 101.916 81.2407 106.34 60.4687C111.238 61.042 114.225 67.1851 117.795 61.2183C117.885 61.0368 117.984 60.8523 118.109 60.6637C118.569 59.9696 119.376 59.2189 121.39 58.3534C121.85 58.8761 122.327 59.4618 122.818 60.1059L127.76 56.6317C154.524 64.8023 180.135 66.445 212.747 88.0412C208.626 104.563 204.357 111.687 191.359 118.531C183.588 111.553 151.6 88.5149 130.374 72.1814C141.548 92.4549 155.175 125.498 159.158 138.914L118.414 146.887C117.215 130.998 115.863 106.789 114.208 85.4478C105.711 108.197 86.8588 135.141 75.7884 145.133Z" fill="#EEC959"/>
<path d="M141.903 163.147C40.9097 186.031 12.204 115.89 10.8936 79.4341L39.668 77.5152C41.9228 103.92 68.7943 152.867 137.992 137.84C201.342 124.084 214.665 64.2976 199.08 31.4986L226.549 21.1446C237.201 57.2564 257.407 136.974 141.903 163.147Z" fill="#F3AA43"/>
<path d="M240.628 100.49L235.597 103.18L206.872 119.731C206.872 119.731 218.423 147.625 237.82 147.801C262.29 148.021 286.672 125.197 283.544 104.952C280.415 84.7073 251.817 87.7009 240.628 100.49Z" fill="#F3AA43"/>
<path d="M221.273 95.4728C214.426 109.752 210.948 115.056 199.516 127.025L226.898 137.106C222.282 127.485 222.443 117.626 233.405 118.573L221.273 95.4728Z" fill="#93463F"/>
<path d="M79.8552 180.439L83.3608 161.892L116.63 162.678C116.63 162.678 126.106 204.858 109.438 214.782C88.4114 227.3 52.4502 219.333 44.4724 200.465C37.5472 184.087 62.7086 175.791 79.8552 180.439Z" fill="#F3AA43"/>
<path d="M115.634 159.99C102.335 160.9 89.7447 158.763 79.5428 156.121L86.4675 180.491C94.1174 170.377 105.518 175.173 111.942 185.66L115.634 159.99Z" fill="#93463F"/>
<path d="M222.345 16.4213C162.239 54.1483 67.1137 77.9069 9.41839 73.973C8.16159 125.995 51.6522 154.028 81.4053 164.188L80.0378 179.508C60.0112 175.2 32.2707 185.572 42.9819 201.278C49.6439 211.047 90.1962 226.472 111.196 216.358C123.241 210.556 117.725 178.306 115.584 167.2C142.018 167.384 177.027 157.276 205.789 129.694C205.789 129.694 232.835 154.728 251.127 148.272C267.941 142.339 290.209 117.348 278.562 101.04C264.099 80.789 242.542 93.7707 235.02 112.02L224.337 106.399C231.661 81.4689 239.914 44.4023 222.345 16.4213Z" stroke="#2C2936" stroke-width="15.0815" stroke-linecap="round" stroke-linejoin="round"/>
<path d="M126.151 121.274C134.795 127.025 147.248 121.421 149.693 113.156" stroke="#2C2936" stroke-width="18.0693" stroke-linecap="round"/>
<path d="M108.38 107.461C108.191 114.911 102.626 120.812 92.9084 122.538C83.1911 124.264 73.1396 121.285 71.8371 113.953C70.5346 106.621 80.0993 97.5743 89.5445 95.7428C99.2298 93.8646 108.554 100.583 108.38 107.461Z" fill="#2C2936"/>
<path d="M188.689 85.7727C190.574 93.6175 184.068 100.046 174.911 103.042C165.893 105.993 154.592 99.9417 154.33 91.8764C154.026 82.4889 160.313 75.962 169.801 74.2765C179.289 72.591 186.804 77.9278 188.689 85.7727Z" fill="#2C2936"/>
</g>
<defs>
<clipPath id="clip0_128_3324">
<rect width="297" height="232" fill="white" transform="matrix(-1 0 0 1 297 0)"/>
</clipPath>
</defs>
</svg>
