<svg width="3000" height="167" viewBox="0 0 3000 167" fill="none" xmlns="http://www.w3.org/2000/svg">
<path d="M0 0.000152588C-0.000156403 27.5003 0.000585556 44.0003 0 71.79C95 90 116 46 239.5 46C282.302 46 344 81 402 81C466.677 81 492.245 39.6003 528.5 38.5C609 36.057 677 110 773.5 101.5C832.73 96.2828 899.594 56.1265 955.5 61.5C989.344 64.753 989.471 78.1368 1028 76.521C1095.5 73.6904 1135.79 52.8942 1149.57 52.8942C1204.34 52.8942 1202.73 98.9519 1278.45 93.0471C1354.17 87.1422 1381.55 36.3608 1442.77 33.9988C1503.99 31.6369 1495.93 46.9895 1561.98 54.0753C1628.03 61.1611 1673.56 32.7419 1753.06 48.1706C1832.13 63.5166 1824.69 122.571 1931.01 124.933C2037.34 127.295 2105 62.2349 2172.66 59.9803C2208.1 58.7994 2204.88 71.7899 2253.21 71.7899C2301.54 71.7899 2333.76 49.3516 2394.98 48.1706C2456.19 46.9897 2489.72 108.177 2583.46 106.038C2676.3 103.919 2691.9 32.7445 2765.5 33.999C2838.85 35.249 2903.15 104.857 3000 71.7899V0.000152588H0Z" fill="#FDF5BC"/>
<path d="M2766.14 66.7703C2840.73 71.2263 2837.61 121.707 2794.23 127.833C2773.56 130.753 2733.98 123.767 2725.23 100.833C2720.69 88.9104 2729.98 64.6103 2766.14 66.7703Z" fill="#FDF5BC"/>
<path d="M1626.66 85.8015C1643.48 83.564 1650.29 95.4457 1649.55 104.292C1648.15 121.087 1636.93 126.686 1622.45 119.393C1604.69 110.445 1604.66 88.7281 1626.66 85.8015Z" fill="#FDF5BC"/>
<path d="M1666.47 95.0891C1673.75 78.0914 1713.4 70.4409 1735.36 74.1429C1757.33 77.8449 1796.61 98.5952 1774.98 129.298C1766.15 141.836 1743.1 150.568 1718.28 150.568C1697.1 150.568 1651.04 131.096 1666.47 95.0891Z" fill="#FDF5BC"/>
<path d="M1113.24 96.0143C1120.52 79.0166 1143.4 72.9453 1151.24 74.5143C1166.24 77.5143 1174.24 85.5143 1171.74 105.014C1169.79 120.226 1160.56 124.514 1135.74 124.514C1114.56 124.514 1107.46 109.514 1113.24 96.0143Z" fill="#FDF5BC"/>
<path d="M201.368 85.2293C208.65 68.2316 228.126 67.2288 245.867 67.229C261.164 67.2292 289.868 76.2296 287.368 95.7293C285.418 110.941 260.189 117.229 235.368 117.229C214.189 117.229 195.585 98.7292 201.368 85.2293Z" fill="#FDF5BC"/>
<path d="M161.14 84.9491C162.64 75.9489 171.221 68.818 179.14 69.9492C189.64 71.4491 193.388 77.0469 192.14 84.9492C190.64 94.4493 186.64 100.949 175.14 100.949C163.64 100.949 159.825 92.84 161.14 84.9491Z" fill="#FDF5BC"/>
</svg>
