<svg width="3000" height="167" viewBox="0 0 3000 167" fill="none" xmlns="http://www.w3.org/2000/svg">
<path d="M3000 167C3000 139.5 3000 123 3000 95.21C2905 77 2884 121 2760.5 121C2717.7 121 2656 86 2598 86C2533.32 86 2507.75 127.4 2471.5 128.5C2391 130.943 2323 57 2226.5 65.5C2167.27 70.7172 2100.41 110.874 2044.5 105.5C2010.66 102.247 2010.53 88.8632 1972 90.479C1904.5 93.3096 1864.21 114.106 1850.43 114.106C1795.66 114.106 1797.27 68.0481 1721.55 73.9529C1645.83 79.8578 1618.45 130.639 1557.23 133.001C1496.01 135.363 1504.07 120.011 1438.02 112.925C1371.97 105.839 1326.44 134.258 1246.94 118.829C1167.87 103.483 1175.31 44.4286 1068.99 42.0667C962.662 39.7048 895 104.765 827.339 107.02C791.898 108.201 795.12 95.2101 746.79 95.2101C698.461 95.2101 666.241 117.648 605.024 118.829C543.807 120.01 510.278 58.8228 416.54 60.9621C323.7 63.0808 308.099 134.255 234.499 133.001C161.153 131.751 96.8472 62.1433 0 95.2101V167H3000Z" fill="#FDF5BC"/>
<path d="M233.861 100.23C159.27 95.7737 162.389 45.2935 205.766 39.1669C226.441 36.2468 266.02 43.2334 274.766 66.167C279.312 78.0896 270.018 102.39 233.861 100.23Z" fill="#FDF5BC"/>
<path d="M1373.34 81.1985C1356.52 83.436 1349.71 71.5543 1350.45 62.7084C1351.85 45.9129 1363.07 40.3144 1377.55 47.6075C1395.31 56.5552 1395.34 78.2719 1373.34 81.1985Z" fill="#FDF5BC"/>
<path d="M1333.53 71.9109C1326.25 88.9086 1286.6 96.5591 1264.64 92.8571C1242.67 89.1551 1203.39 68.4048 1225.02 37.7024C1233.85 25.1644 1256.9 16.4318 1281.72 16.4318C1302.9 16.4318 1348.96 35.9043 1333.53 71.9109Z" fill="#FDF5BC"/>
<path d="M1886.76 70.9857C1879.48 87.9834 1856.6 94.0547 1848.76 92.4857C1833.76 89.4857 1825.76 81.4857 1828.26 61.9859C1830.21 46.7739 1839.44 42.4858 1864.26 42.4858C1885.44 42.4858 1892.54 57.4858 1886.76 70.9857Z" fill="#FDF5BC"/>
<path d="M2798.63 81.7707C2791.35 98.7684 2771.87 99.7712 2754.13 99.771C2738.84 99.7708 2710.13 90.7704 2712.63 71.2707C2714.58 56.0587 2739.81 49.7709 2764.63 49.7709C2785.81 49.7709 2804.42 68.2708 2798.63 81.7707Z" fill="#FDF5BC"/>
<path d="M2838.86 82.0509C2837.36 91.0511 2828.78 98.182 2820.86 97.0508C2810.36 95.5509 2806.61 89.9531 2807.86 82.0508C2809.36 72.5507 2813.36 66.0509 2824.86 66.0509C2836.36 66.0509 2840.17 74.16 2838.86 82.0509Z" fill="#FDF5BC"/>
</svg>
