<svg width="3000" height="169" viewBox="0 0 3000 169" fill="none" xmlns="http://www.w3.org/2000/svg">
<path d="M2.16013e-05 0.000152588C-0.000134801 27.5003 0.000629354 46.0003 4.37982e-05 73.79C96.5 73.79 116 48 239.5 48C282.302 48 344 83 402 83C466.678 83 492.245 41.6003 528.5 40.5C609 38.057 677 112 773.5 103.5C832.73 98.2828 899.594 58.1265 955.5 63.5C989.344 66.753 989.471 80.1368 1028 78.521C1095.5 75.6904 1135.79 54.8942 1149.57 54.8942C1204.34 54.8942 1202.73 100.952 1278.45 95.0471C1354.17 89.1422 1381.55 38.3608 1442.77 35.9988C1503.99 33.6369 1495.93 48.9895 1561.98 56.0753C1628.03 63.1611 1673.56 34.7419 1753.06 50.1706C1832.13 65.5166 1824.69 124.571 1931.01 126.933C2037.34 129.295 2105 64.2349 2172.66 61.9803C2208.1 60.7994 2204.88 73.7899 2253.21 73.7899C2301.54 73.7899 2333.76 51.3516 2394.98 50.1706C2456.19 48.9897 2489.72 110.177 2583.46 108.038C2676.3 105.919 2691.9 34.7445 2765.5 35.999C2838.85 37.249 2899.5 73.7899 3000 73.7899V0.000152588H2.16013e-05Z" fill="#EEF49A"/>
<path d="M2766.14 68.7703C2840.73 73.2263 2837.61 123.707 2794.23 129.833C2773.56 132.753 2733.98 125.767 2725.23 102.833C2720.69 90.9104 2729.98 66.6103 2766.14 68.7703Z" fill="#EEF49A"/>
<path d="M1626.66 87.8015C1643.48 85.564 1650.29 97.4457 1649.55 106.292C1648.15 123.087 1636.93 128.686 1622.45 121.393C1604.69 112.445 1604.66 90.7281 1626.66 87.8015Z" fill="#EEF49A"/>
<path d="M1666.47 97.0891C1673.75 80.0914 1713.4 72.4409 1735.36 76.1429C1757.33 79.8449 1796.61 100.595 1774.98 131.298C1766.15 143.836 1743.1 152.568 1718.28 152.568C1697.1 152.568 1651.04 133.096 1666.47 97.0891Z" fill="#EEF49A"/>
<path d="M1113.24 98.0143C1120.52 81.0166 1143.4 74.9453 1151.24 76.5143C1166.24 79.5143 1174.24 87.5143 1171.74 107.014C1169.79 122.226 1160.56 126.514 1135.74 126.514C1114.56 126.514 1107.46 111.514 1113.24 98.0143Z" fill="#EEF49A"/>
<path d="M201.368 87.2293C208.65 70.2316 228.126 69.2288 245.867 69.229C261.164 69.2292 289.868 78.2296 287.368 97.7293C285.418 112.941 260.189 119.229 235.368 119.229C214.189 119.229 195.585 100.729 201.368 87.2293Z" fill="#EEF49A"/>
<path d="M161.14 86.9491C162.64 77.9489 171.221 70.818 179.14 71.9492C189.64 73.4491 193.388 79.0469 192.14 86.9492C190.64 96.4493 186.64 102.949 175.14 102.949C163.64 102.949 159.825 94.84 161.14 86.9491Z" fill="#EEF49A"/>
</svg>
