<svg width="418" height="1103" viewBox="0 0 418 1103" fill="none" xmlns="http://www.w3.org/2000/svg">
<path d="M262.475 979.994C213.276 996.399 141.622 996.834 101.332 984.072C96.4266 1008.08 102.952 1048.12 137.751 1061.71L130.402 1070.85C119.898 1064.23 120.327 1069.6 120.693 1084.06C121.072 1099.03 128.848 1093.16 145.942 1087.9C159.493 1083.73 161.322 1067.31 161.322 1067.31C174.475 1069.74 190.367 1071.4 202.022 1069.04C202.022 1069.04 206.115 1078.08 219.858 1081.55C237.197 1085.94 240.187 1092.48 241.464 1077.56C242.74 1062.64 240.551 1066.68 230.396 1073.83L225.279 1062.25C264.218 1048.86 268.588 1003.73 262.475 979.994Z" fill="#F4EA9B"/>
<path d="M135.266 1045.23L120.971 1024.92C128.354 1022.26 167.345 1005.83 172.488 991.228C175.868 992.482 176.927 997.36 180.493 993.74C180.589 993.626 180.691 993.513 180.813 993.4C181.259 992.987 181.962 992.593 183.542 992.327C183.778 992.778 184.013 993.277 184.246 993.82L188.362 992.205C205.988 1003.86 220.912 1010.03 240.298 1029.48L222.829 1047.15C219.778 1039.15 199.932 1015.33 186.659 1001.14C190.969 1017.21 194.266 1045.36 194.804 1056.13L167.205 1054.76C172.071 1041.33 175.297 1020.67 175.95 1004.2C166.179 1018.91 144.583 1037.68 135.266 1045.23Z" fill="#EEC959"/>
<path d="M180.002 1070.28C104.332 1069.08 96.0674 1014.32 101.436 988.204L122.2 991.813C119.239 1010.95 129.863 1050.35 181.597 1051.64C228.959 1052.82 248.75 1012.66 243.349 986.679L264.645 984.073C265.969 1011.56 266.544 1071.66 180.002 1070.28Z" fill="#F3AD43"/>
<path d="M230.598 1070.25L225.279 1062.25L202.022 1069.04C202.022 1069.04 205.404 1090.84 219.148 1094.32C236.486 1098.7 256.353 1091.38 257.629 1076.46C258.906 1061.54 240.753 1063.11 230.598 1070.25Z" fill="#F3AD43"/>
<path d="M227.859 1055.29C216.259 1059.71 210.09 1062.33 198.158 1064.31L211.896 1080.03C211.652 1070.39 222.936 1067 228.929 1072.36L227.859 1055.29Z" fill="#93463F"/>
<path d="M130.402 1070.85L137.75 1061.71L161.322 1067.31C161.322 1067.31 156.965 1092.76 143.414 1096.92C126.32 1102.18 106.719 1090.09 106.341 1075.12C105.975 1060.66 119.898 1064.22 130.402 1070.85Z" fill="#F3AD43"/>
<path d="M163.656 1062.43C153.98 1061.29 145.294 1058.41 138.32 1055.14L134.506 1071.65C142.602 1066.84 152.738 1070.5 154.015 1080.12L163.656 1062.43Z" fill="#93463F"/>
<path d="M262.475 979.993C213.276 996.398 141.621 996.833 101.331 984.071C96.4265 1008.08 101.523 1046.08 136.321 1059.67L131.659 1068.06C121.827 1062.8 107.09 1063.86 106.367 1076.15C105.489 1091.1 130.374 1098.97 147.468 1093.72C161.018 1089.55 161.322 1067.31 161.322 1067.31C174.475 1069.73 190.367 1071.4 202.022 1069.04C202.022 1069.04 204.955 1088.62 218.743 1091.91C230.122 1094.64 254.831 1090.76 257.974 1076.45C261.265 1061.47 242.32 1058.88 231.217 1067.48L227.998 1060.8C264.889 1048.15 268.588 1003.73 262.475 979.993Z" stroke="#2C2936" stroke-width="11.0219" stroke-linecap="round" stroke-linejoin="round"/>
<path d="M136.51 1027.81C136.554 1015.13 149.773 1008.81 155.664 1009.12C175.523 1010.18 184.39 1027.4 169.232 1035.39C161.089 1039.68 136.473 1038.53 136.51 1027.81Z" fill="white" stroke="#2C2936" stroke-width="10.333"/>
<path d="M166.132 1025.4C165.336 1029.88 162.506 1030.07 156.487 1030.22C150.469 1030.37 146.269 1029.94 146.154 1025.4C146.039 1020.86 150.641 1018.79 156.487 1017.82C162.424 1016.84 166.866 1021.27 166.132 1025.4Z" fill="#2C2936"/>
<path d="M181.314 1047.4C185.071 1047.18 187.206 1046.5 191.822 1046.07" stroke="#2C2936" stroke-width="11.0219" stroke-linecap="round"/>
<path d="M200.283 1034.45C185.878 1021.19 199.386 1009.77 206.469 1007.17C222.584 1001.27 236.835 1012.22 235.087 1024.11C233.724 1033.38 215.153 1048.14 200.283 1034.45Z" fill="white" stroke="#2C2936" stroke-width="10.333"/>
<path d="M225.585 1022.45C226.004 1027.36 221.492 1030.64 215.696 1031.61C209.988 1032.56 203.725 1027.88 204.305 1022.99C204.98 1017.3 209.369 1013.94 215.245 1013.79C221.121 1013.64 225.165 1017.55 225.585 1022.45Z" fill="#2C2936"/>
<path d="M11.8859 562.658C63.0502 571.139 133.885 560.324 171.673 541.397C180.285 564.342 180.122 604.902 147.888 623.785L156.581 631.662C165.915 623.471 166.334 628.846 168.242 643.185C170.217 658.026 161.616 653.449 143.909 650.94C129.872 648.952 125.489 633.019 125.489 633.019C112.878 637.477 97.4452 641.615 85.5639 641.111C85.5639 641.111 82.9399 650.679 69.9118 656.269C53.4766 663.32 51.5492 670.248 47.9478 655.717C44.3465 641.185 47.1427 644.834 58.294 650.299L61.5294 638.055C20.9715 630.943 9.57277 587.057 11.8859 562.658Z" fill="#F4EA9B"/>
<path d="M147.756 607.122L158.687 584.819C150.977 583.35 109.891 573.244 102.52 559.631C99.3797 561.399 99.0988 566.383 95.009 563.367C94.8967 563.271 94.7779 563.174 94.6405 563.082C94.135 562.744 93.3786 562.466 91.7766 562.45C91.614 562.933 91.4605 563.463 91.3156 564.036L86.9967 563.086C71.4187 577.367 57.6478 585.803 41.5538 608.049L61.5793 622.758C63.3382 614.383 79.1987 587.737 90.0819 571.648C88.3465 588.193 89.5079 616.509 90.6664 627.227L117.708 621.544C110.796 609.049 104.367 589.147 101.136 572.98C113.096 585.981 137.37 601.123 147.756 607.122Z" fill="#EEC959"/>
<path d="M107.506 638.886C182.05 625.827 181.618 570.441 172.218 545.493L152.277 552.316C158.205 570.754 153.896 611.333 103.004 620.722C56.4144 629.316 30.5678 592.767 31.8234 566.258L10.383 567.026C13.3881 594.377 22.2517 653.822 107.506 638.886Z" fill="#F3AD43"/>
<path d="M61.5292 638.054L56.6103 644.73C45.459 639.264 31.4268 655.793 35.0282 670.324C38.6295 684.856 58.3211 679.51 72.6168 668.764C81.9097 661.779 83.185 641.607 85.3047 641.078L85.5638 641.11C85.4757 641.067 85.3895 641.056 85.3047 641.078L61.5292 638.054Z" fill="#F3AD43"/>
<path d="M57.8895 631.589C70.0394 634.132 76.5427 635.75 88.6381 635.837L77.5372 653.516C76.2652 643.956 64.5894 642.382 59.512 648.617L57.8895 631.589Z" fill="#93463F"/>
<path d="M154.843 629.696L147.888 623.783L125.489 633.018C125.489 633.018 131.832 654.764 145.869 656.753C163.576 659.261 184.77 661.432 182.795 646.592C180.887 632.252 164.178 621.505 154.843 629.696Z" fill="#F3AD43"/>
<path d="M122.417 628.563C131.795 625.925 139.922 621.717 146.296 617.394L152.653 633.097C143.903 629.616 131.624 634.467 131.872 644.164L122.417 628.563Z" fill="#93463F"/>
<path d="M11.8859 562.657C63.0502 571.138 133.885 560.323 171.673 541.396C180.285 564.342 181.216 602.671 148.981 621.554L152.844 628.539C166.517 625.581 182.643 632.171 181.772 646.394C180.857 661.337 154.057 658.275 137.249 652.166C125.096 647.749 125.489 633.019 125.489 633.019C112.878 637.476 97.4452 641.615 85.564 641.111C85.564 641.111 82.0815 657.642 71.463 667.035C61.9771 675.426 48.2415 681.639 37.3506 671.847C26.2302 661.849 36.8739 651.458 56.4862 644.156L58.6166 637.052C20.1982 630.35 9.57281 587.056 11.8859 562.657Z" stroke="#2C2936" stroke-width="11.0219" stroke-linecap="round" stroke-linejoin="round"/>
<path d="M120.019 604.794C103.591 594.138 114.989 580.617 121.535 576.868C136.43 568.339 152.318 576.743 152.591 588.755C152.804 598.119 136.978 615.795 120.019 604.794Z" fill="white" stroke="#2C2936" stroke-width="10.333"/>
<path d="M141.384 589.247C142.542 594.03 138.581 597.959 132.999 599.797C127.502 601.607 120.601 597.929 120.433 593.009C120.236 587.284 124.064 583.295 129.85 582.256C135.635 581.217 140.225 584.464 141.384 589.247Z" fill="#2C2936"/>
<path d="M42.7035 610.824C40.4728 598.342 54.0773 588.46 59.9378 587.779C79.692 585.486 89.4669 598.119 80.2551 612.57C73.9084 622.526 45.1351 624.43 42.7035 610.824Z" fill="white" stroke="#2C2936" stroke-width="10.333"/>
<path d="M74.1587 603.222C74.0521 607.767 70.6639 611.372 64.7385 612.436C58.8131 613.5 52.6785 611.694 51.8757 607.223C51.0728 602.752 57.0244 597.942 62.6561 596.095C68.3743 594.22 74.2572 599.026 74.1587 603.222Z" fill="#2C2936"/>
<path d="M91.1311 619.982C88.7629 614.061 88.9151 601.784 97.9847 600.768C105.41 599.936 113.861 609.387 113.233 616.11C112.32 625.881 94.6772 628.848 91.1311 619.982Z" fill="#2C2936"/>
<path d="M105.107 618.798C104.194 620.704 101.703 621.129 99.5127 620.417C96.0279 619.285 96.1803 615.411 100.318 615.072C102.153 614.922 106.421 616.056 105.107 618.798Z" fill="white"/>
<path d="M100.269 425.043C146.939 447.664 217.937 457.348 259.537 449.895C261.3 474.34 249.66 513.193 213.398 522.177L189.301 524.691C175.944 525.396 159.971 524.995 148.719 521.148C148.719 521.148 143.493 529.581 129.416 531.253C111.656 533.362 107.846 539.461 108.507 524.505C109.167 509.548 110.816 513.839 119.963 522.239L126.533 511.411C89.6489 493.106 91.1425 447.789 100.269 425.043Z" fill="#F4EA9B"/>
<path d="M217.989 506.16L234.788 487.866C227.809 484.273 191.266 462.947 188.051 447.805C184.538 448.611 182.858 453.312 179.789 449.261C179.709 449.137 179.622 449.011 179.517 448.884C179.128 448.416 178.481 447.935 176.949 447.467C176.656 447.883 176.359 448.348 176.058 448.857L172.184 446.723C153.201 456.009 137.605 460.2 115.87 476.979L130.912 496.756C134.97 489.223 157.726 468.157 172.719 455.808C166.37 471.184 159.467 498.671 157.543 509.278L185.087 511.485C181.996 497.544 181.465 476.636 182.944 460.216C190.733 476.071 209.726 497.466 217.989 506.16Z" fill="#EEC959"/>
<path d="M170.393 525.227C245.584 533.808 260.852 480.566 258.9 453.978L237.844 454.876C238.309 474.238 222.686 511.936 171.219 506.531C124.102 501.583 109.661 459.211 118.371 434.142L97.5908 428.808C92.7289 455.89 84.3986 515.412 170.393 525.227Z" fill="#F3AD43"/>
<path d="M126.533 511.412L119.925 516.422C109.294 516.422 87.6075 530.7 88.9726 545.609C90.0572 557.454 116.412 547.382 130.649 545.609C142.238 544.166 146.55 521.066 148.519 521.06L148.719 521.148C148.655 521.089 148.588 521.06 148.519 521.06L126.533 511.412Z" fill="#F3AD43"/>
<path d="M124.873 504.18C135.806 510.059 141.585 513.452 153.161 516.96L140.293 531.142C141.78 521.613 128.243 516.428 121.608 520.971L124.873 504.18Z" fill="#93463F"/>
<path d="M251.847 501.406L246.85 493.765L222.753 496.28C222.753 496.28 222.679 518.933 235.578 524.814C251.851 532.234 267.071 532.495 274.966 519.776C289.172 496.892 279.003 484.797 251.847 501.406Z" fill="#F3AD43"/>
<path d="M227.779 511.164C236.045 505.653 241.478 498.705 245.04 491.876L252.578 506.687C243.223 507.771 239.151 514.801 243.967 523.219L227.779 511.164Z" fill="#93463F"/>
<path d="M100.269 425.043C146.939 447.663 217.937 457.347 259.537 449.894C257.4 476.032 254.3 484.987 246.379 498.42L254.3 502.554C263.865 494.033 282.865 485.602 280.822 508.409C279.52 522.936 251.278 537.074 240.179 525.975C231.568 517.364 229.846 513.92 229.846 513.92C204.164 529.015 163.848 529.65 148.719 521.147C148.719 521.147 143.453 544.591 129.616 547.675C117.353 550.407 93.4624 556.907 88.9725 547.675C79.9112 529.043 101.787 517.933 119.627 519.431L124.023 509.625C89.0748 492.319 91.1425 447.788 100.269 425.043Z" stroke="#2C2936" stroke-width="11.0219" stroke-linecap="round" stroke-linejoin="round"/>
<path d="M192.292 486.788C192.503 491.329 195.973 494.856 201.921 495.784C207.869 496.712 213.961 494.767 214.661 490.278C215.361 485.79 209.301 481.118 203.629 479.4C197.869 477.656 192.098 482.596 192.292 486.788Z" fill="#2C2936"/>
<path d="M121.965 475.547C120.916 480.355 124.966 484.192 130.588 485.902C136.126 487.586 142.94 483.751 142.997 478.829C143.062 473.1 139.144 469.2 133.336 468.294C127.528 467.388 123.014 470.739 121.965 475.547Z" fill="#2C2936"/>
<path d="M221.579 477.024C215.46 475.59 208.016 472.857 201.872 468.799" stroke="#2C2936" stroke-width="9.64414" stroke-linecap="round"/>
<path d="M136.508 458.845C128.586 458.156 121.008 460.567 117.219 465.389" stroke="#2C2936" stroke-width="9.64414" stroke-linecap="round"/>
<path d="M187.828 509.447C187.139 507.036 189.206 480.17 168.884 488.781C165.073 477.926 156.829 482.581 152.696 488.781" stroke="#2C2936" stroke-width="11.0219" stroke-linecap="round" stroke-linejoin="round"/>
<path d="M277.391 866.699C229.04 885.458 157.491 889.349 116.632 878.546C112.891 902.767 121.34 942.437 156.754 954.333L149.855 963.821C139.043 957.71 139.731 963.057 140.795 977.484C141.895 992.415 149.379 986.176 166.199 980.102C179.533 975.286 180.568 958.794 180.568 958.794C193.823 960.581 209.776 961.477 221.303 958.555C221.303 958.555 225.828 967.385 239.723 970.194C257.253 973.737 260.555 980.125 261.111 965.164C261.666 950.203 259.674 954.346 249.876 961.976L244.206 950.651C282.454 935.399 284.642 890.11 277.391 866.699Z" fill="#F4EA9B"/>
<path d="M154.417 938.792L138.219 918.399C143.931 914.868 182.004 896.556 188.051 882.262C191.487 883.351 192.781 888.172 196.168 884.384C196.258 884.266 196.355 884.148 196.471 884.03C196.896 883.595 197.58 883.168 199.145 882.826C199.402 883.264 199.663 883.75 199.927 884.281L203.954 882.471C222.029 892.036 240.181 896.758 260.596 916.767C255.354 928.053 251.305 932.575 241.031 935.688C236.42 929.606 216.651 908.649 203.679 893.991C208.893 910.086 214.102 935.682 215.104 945.861L184.763 945.947C186.1 934.379 188.478 916.819 190.243 901.275C180.999 916.425 163.743 933.153 154.417 938.792Z" fill="#EEC959"/>
<path d="M199.369 960.862C123.73 963.314 112.833 909.01 116.935 882.667L137.849 885.271C135.815 904.531 148.328 943.373 200.064 942.161C247.427 941.052 265.257 899.992 258.61 874.299L279.755 870.669C282.403 898.056 285.877 958.058 199.369 960.862Z" fill="#F3AD43"/>
<path d="M249.905 958.391L244.206 950.651L221.304 958.555C221.304 958.555 225.734 980.17 239.629 982.979C257.159 986.522 276.649 978.248 277.205 963.287C277.76 948.326 259.704 950.762 249.905 958.391Z" fill="#F3AD43"/>
<path d="M246.447 943.577C235.074 948.551 229.039 951.463 217.216 954.02L225.589 970.182C224.88 960.564 242.095 955.512 248.34 960.578L246.447 943.577Z" fill="#93463F"/>
<path d="M149.855 963.82L156.754 954.332L180.568 958.794C180.568 958.794 177.443 984.419 164.11 989.235C147.289 995.31 127.128 984.178 126.028 969.247C124.964 954.82 139.043 957.71 149.855 963.82Z" fill="#F3AD43"/>
<path d="M182.663 953.804C172.944 953.139 164.129 950.68 157.006 947.752L153.992 964.423C161.847 959.226 172.147 962.394 173.887 971.936L182.663 953.804Z" fill="#93463F"/>
<path d="M277.391 866.698C229.04 885.457 157.491 889.348 116.632 878.545C112.891 902.766 119.814 940.476 155.228 952.372L150.975 960.974C140.901 956.191 126.232 957.963 126.104 970.277C125.947 985.247 151.183 991.914 168.004 985.839C181.337 981.024 180.568 958.794 180.568 958.794C190.905 961.423 205.226 962.736 219.192 959.111C219.192 959.111 219.448 978.902 233.379 981.53C244.877 983.7 273.269 980.131 275.718 965.692C278.283 950.574 260.074 947.097 249.398 956.221L246.852 949.074C286.714 932.463 286.129 889.208 277.391 866.698Z" stroke="#2C2936" stroke-width="11.0219" stroke-linecap="round" stroke-linejoin="round"/>
<path d="M178.879 912.041C179.474 916.548 176.253 918.567 170.249 919.01C164.246 919.452 157.561 917.569 157.155 912.056C156.821 907.526 162.207 902.423 168.325 902.127C174.336 901.837 178.335 907.929 178.879 912.041Z" fill="#2C2936"/>
<path d="M234.278 900.796C234.933 905.674 231.908 908.842 226.814 910.467C221.3 912.226 216.395 910.551 214.868 905.871C213.317 901.12 215.799 895.414 221.544 894.169C227.687 892.838 233.623 895.919 234.278 900.796Z" fill="#2C2936"/>
<path d="M238.462 913.493C234.712 916.432 229.354 919.004 223.996 919.004" stroke="#2C2936" stroke-width="9.64414" stroke-linecap="round" stroke-linejoin="round"/>
<path d="M158.539 925.83C154.253 923.938 151.497 920.839 150.396 918.412" stroke="#2C2936" stroke-width="9.64414" stroke-linecap="round" stroke-linejoin="round"/>
<path d="M180.253 937.948C180.023 929.223 181.975 913.425 194.375 920.038C194.489 914.068 203.261 906.467 212.63 916.938" stroke="#2C2936" stroke-width="9.64414" stroke-linecap="round" stroke-linejoin="round"/>
<path d="M254.373 61.1436C213.072 92.5117 145.371 115.987 103.118 116.873C106.203 141.186 125.266 176.987 162.587 178.653L186.708 176.373C199.942 174.434 215.523 170.895 225.798 164.907L245.631 150.992C278.189 125.782 267.8 81.6465 254.373 61.1436Z" fill="#F4EA9B"/>
<path d="M156.054 164.359L134.859 149.225C139.376 144.256 170.921 116.153 172.791 100.745C176.394 100.844 178.968 105.121 181.179 100.546C181.233 100.408 181.293 100.267 181.371 100.122C181.661 99.5868 182.2 98.9878 183.61 98.2269C183.978 98.5776 184.363 98.973 184.763 99.4099L188.135 96.5598C208.147 100.768 226.897 100.3 252.04 113.901C250.114 126.195 247.469 131.659 238.452 137.486C232.342 132.911 207.56 118.219 191.048 107.709C200.499 121.741 212.566 144.908 216.337 154.415L187.196 162.867C185.291 151.378 182.734 133.844 180.142 118.416C175.435 135.528 163.463 156.367 156.054 164.359Z" fill="#EEC959"/>
<path d="M205.35 173.175C133.322 196.395 107.869 147.203 104.546 120.751L125.367 117.484C128.724 136.559 151.465 170.442 200.86 155.008C246.079 140.878 251.893 96.4919 238.417 73.6293L257.74 64.3074C267.84 89.902 287.729 146.618 205.35 173.175Z" fill="#F3AD43"/>
<path d="M273.143 121.152L269.656 123.437L249.822 137.352C249.822 137.352 260.042 156.906 274.174 155.773C292 154.344 308.266 136.145 304.673 121.612C301.08 107.078 280.457 111.116 273.143 121.152Z" fill="#F3AD43"/>
<path d="M258.727 118.755C254.671 129.594 252.484 133.681 244.94 143.136L265.527 148.696C261.542 141.992 261.019 134.805 269.059 134.782L258.727 118.755Z" fill="#93463F"/>
<path d="M161.309 189.794L162.656 176.066L186.925 174.476C186.925 174.476 196.563 204.565 185.075 212.871C170.582 223.35 143.888 219.888 136.854 206.671C130.749 195.199 148.526 187.526 161.309 189.794Z" fill="#F3AD43"/>
<path d="M186.024 172.585C176.402 174.111 167.099 173.374 159.501 172.113L166.125 189.403C171.036 181.544 179.647 184.294 185.005 191.51L186.024 172.585Z" fill="#93463F"/>
<path d="M254.372 61.1428C213.072 92.5109 145.371 115.987 103.117 116.872C105.583 154.821 139.062 172.402 161.381 177.864L161.381 189.105C146.523 187.27 127.004 196.623 135.821 207.36C141.305 214.038 171.827 222.632 186.456 213.904C194.846 208.898 188.736 185.781 186.456 177.836C205.71 176.252 230.537 166.619 249.681 144.673C249.681 144.673 270.996 161.138 283.892 155.251C295.745 149.839 310.331 130.2 300.793 119.086C288.949 105.285 274.1 116.135 269.811 129.908L261.669 126.511C265.381 107.887 268.98 80.3693 254.372 61.1428Z" stroke="#2C2936" stroke-width="11.0219" stroke-linecap="round" stroke-linejoin="round"/>
<path d="M176.115 135.047C177.93 139.215 175.391 142.044 169.742 144.126C164.094 146.207 157.149 146.241 155.238 141.053C153.667 136.791 157.437 130.401 163.236 128.429C168.934 126.492 174.458 131.245 176.115 135.047Z" fill="#2C2936"/>
<path d="M189.581 140.332C195.144 143.357 202.406 139.277 203.444 134.123" stroke="#2C2936" stroke-width="11.0219" stroke-linecap="round"/>
<path d="M228.031 110.121C230.006 114.629 227.972 118.508 223.524 121.476C218.709 124.688 213.532 124.43 210.773 120.353C207.973 116.214 208.785 110.045 213.963 107.264C219.5 104.29 226.056 105.614 228.031 110.121Z" fill="#2C2936"/>
<path d="M290.92 281.27C260.077 310.164 195.245 340.681 143.782 347.105C148.505 371.154 171.917 409.984 212.822 405.266L213.203 417.925C200.958 415.857 197.239 413.154 204.826 426.061C212.412 438.968 212.289 431.778 226.039 420.343C236.939 411.278 236.733 401.359 236.733 401.359C248.267 398.462 261.885 390.105 272.707 382.244C272.707 382.244 252.733 377.644 266.755 375.557C271.351 374.873 274.521 375.278 276.589 376.012C281.704 377.829 280.072 381.662 276.589 376.012C276.061 375.157 275.492 374.084 274.897 372.754C268.988 359.55 292.145 363.497 285.527 374.005L291.554 367.019C317.085 339.747 305.703 300.817 290.92 281.27Z" fill="#F4EA9B"/>
<path d="M286.239 352.23L290.823 326.593C284.12 326.195 241.917 328.137 229.812 318.422C227.304 321.011 228.452 325.869 223.673 324.141C223.538 324.081 223.397 324.022 223.239 323.973C222.658 323.792 221.854 323.741 220.314 324.182C220.295 324.69 220.296 325.242 220.315 325.834L215.912 326.151C204.538 343.147 190.798 355.914 182.319 383.213C192.288 390.661 197.997 392.721 208.519 390.588C209.693 383.046 217.153 355.219 221.619 336.162C224.664 352.804 232.222 377.807 236.169 387.243L262.919 372.925C256.254 363.376 245.83 349.046 236.903 336.2C252.227 345.151 275.354 351.691 286.239 352.23Z" fill="#EEC959"/>
<path d="M257.136 392.984C324.885 359.26 308.716 306.285 292.608 285.042L275.432 297.255C286.36 313.245 293.772 353.374 247.653 376.851C205.433 398.344 170.257 370.657 163.92 344.886L143.584 351.721C154.245 377.087 179.653 431.555 257.136 392.984Z" fill="#F3AD43"/>
<path d="M209.224 412.66L212.822 405.265L236.733 401.358C236.733 401.358 243.087 422.488 232.187 431.553C218.437 442.988 208.205 458.764 200.618 445.858C193.032 432.951 197.262 414.948 209.224 412.66Z" fill="#F3AD43"/>
<path d="M241.002 392.974L241.054 392.959L232.352 416.354C228.989 406.584 214.526 409.014 209.806 416.467L207.494 400.103C219.847 399.086 229.405 396.325 241.002 392.974Z" fill="#93463F"/>
<path d="M325.663 290.609L303.907 304.656L303.625 331.345C303.625 331.345 312.165 323.843 326.187 321.756C343.876 319.124 356.343 298.542 350.229 284.877C344.32 271.672 332.281 280.101 325.663 290.609Z" fill="#F3AD43"/>
<path d="M300.683 331.266C301.592 322.972 301.355 319.891 299.166 309.932L313.72 305.649C309.866 312.441 314.084 320.46 321.924 321.039L300.683 331.266Z" fill="#93463F"/>
<path d="M143.782 347.104C195.245 340.68 260.077 310.162 290.92 281.268C298.199 289.136 301.99 298.03 303.838 308.687L316.171 300.069C322.77 291.079 327.141 274.8 343.174 276.93C358.015 278.901 350.477 308.864 335.082 317.965C323.277 324.943 305.803 331.324 305.803 331.324C303.049 356.565 274.259 391.313 241.973 397.742C241.973 397.742 239.461 411.647 233.741 424.618C228.626 436.215 222.669 443.752 208.814 448.5C197.12 452.507 190.456 430.008 206.774 411.892L209.745 405.132C166.774 409.42 146.769 371.065 143.782 347.104Z" stroke="#2C2936" stroke-width="11.0219" stroke-linecap="round" stroke-linejoin="round"/>
<path d="M262.722 346.425C260.856 352.477 252.81 354.633 248.466 351.671" stroke="#2C2936" stroke-width="11.0219" stroke-linecap="round"/>
<path d="M281.602 330.075C275.789 327.068 267.437 325.52 262.244 326.267" stroke="#2C2936" stroke-width="12.3996" stroke-linecap="round"/>
<path d="M221.029 356.758C222.195 349.938 226.03 342.931 233.599 339.494" stroke="#2C2936" stroke-width="12.3996" stroke-linecap="round"/>
<path d="M270.234 655.29C220.403 669.663 148.791 667.159 109.058 652.756C103.173 676.547 108.051 716.812 142.263 731.818L165.584 738.385C178.628 741.346 194.437 743.662 206.179 741.779L229.695 735.949C269.151 724.168 275.369 679.254 270.234 655.29Z" fill="#F4EA9B"/>
<path d="M140.456 715.255L127.006 694.375C134.492 692.018 174.124 677.203 179.862 662.825C183.187 664.216 184.046 669.134 187.757 665.663C187.857 665.553 187.964 665.444 188.09 665.337C188.553 664.942 189.272 664.577 190.861 664.376C191.079 664.836 191.293 665.345 191.503 665.897L195.682 664.452C212.815 676.824 227.474 683.601 246.046 703.825L227.867 720.763C225.146 712.649 206.294 688.028 193.614 673.314C197.261 689.545 199.401 717.804 199.497 728.584L171.978 726.085C177.39 712.87 181.46 692.356 182.789 675.923C172.423 690.227 150.075 708.089 140.456 715.255Z" fill="#EEC959"/>
<path d="M184.127 742.121C108.57 737.819 102.558 682.759 108.993 656.888L129.592 661.345C125.848 680.347 134.848 720.15 186.486 723.557C233.759 726.675 255.18 687.368 250.85 661.185L272.234 659.454C272.43 686.969 270.54 747.041 184.127 742.121Z" fill="#F3AD43"/>
<path d="M266.359 706.457L258.042 700.627L240.182 711.625C240.182 711.625 244.452 737.209 258.042 741.246C275.186 746.338 287.896 731.006 289.783 716.155C291.67 701.303 276.799 699.732 266.359 706.457Z" fill="#F3AD43"/>
<path d="M257.403 705.769C253.614 713.346 251.203 716.102 243.281 720.924C250.871 725.276 245.906 729.812 254.303 730.568C253.959 720.579 256.025 716.446 265.325 715.069L257.403 705.769Z" fill="#93463F"/>
<path d="M192.921 748.347L190.489 736.871L166.925 731.238C166.925 731.238 159.332 755.911 169.545 765.743C182.428 778.147 205.376 776.2 212.467 763.015C219.319 750.274 205.284 747.174 192.921 748.347Z" fill="#F3AD43"/>
<path d="M165.471 732.322C174.721 735.378 183.812 736.433 191.514 736.413L187.868 750.424C179.64 744.369 173.588 743.936 168.372 752.113L165.471 732.322Z" fill="#93463F"/>
<path d="M270.234 655.29C220.403 669.664 148.791 667.16 109.058 652.756C107.938 696.955 110.993 723.693 165.498 737.876C165.498 737.876 159.416 761.455 172.149 767.689C187.664 775.286 212.786 774.685 218.746 760.951C223.648 749.654 201.346 746.143 190.197 746.405L189.608 741.625C204.455 741.972 235.704 735.736 247.759 724.025C247.759 724.025 247.207 737.764 260.848 741.625C272.106 744.811 289.652 728.636 290.813 714.036C292.067 698.275 272.711 699.272 264.415 710.638L261.536 708.181C270.766 689.168 276.545 679.467 270.234 655.29Z" stroke="#2C2936" stroke-width="11.0219" stroke-linecap="round" stroke-linejoin="round"/>
<path d="M166.544 699.855C165.566 704.294 161.548 707.181 155.529 707.086C149.509 706.992 143.836 704.041 143.908 699.499C143.979 694.957 150.757 690.65 156.626 690.65C162.644 690.65 167.447 695.756 166.544 699.855Z" fill="#2C2936"/>
<path d="M224.528 697.802C224.746 702.718 220.104 705.812 214.273 706.543C208.53 707.263 202.465 702.327 203.245 697.467C204.153 691.81 208.676 688.632 214.553 688.724C220.43 688.817 224.311 692.885 224.528 697.802Z" fill="#2C2936"/>
<path d="M172.997 715.375C171.303 707.314 176.556 696.032 184.564 696.689C191.682 697.273 200.174 707.085 197.466 715.375C193.889 726.326 175.296 726.315 172.997 715.375Z" fill="#2C2936"/>
<path d="M190.66 715.678C189.54 718.546 186.073 719.391 182.93 718.546C177.93 717.202 177.811 711.522 183.602 710.657C186.171 710.273 192.272 711.548 190.66 715.678Z" fill="white"/>
<path d="M74.1428 222.779C124.974 233.068 196.148 224.77 234.583 207.194C242.377 230.43 240.777 270.959 207.893 288.687L185.181 297.122C172.42 301.13 156.85 304.719 144.994 303.794L121.083 299.888C80.8028 291.343 70.9664 247.08 74.1428 222.779Z" fill="#F4EA9B"/>
<path d="M208.352 272.033L220.067 250.131C212.414 248.389 171.712 236.833 164.828 222.968C161.626 224.624 161.169 229.595 157.189 226.436C157.08 226.335 156.965 226.235 156.831 226.138C156.337 225.782 155.591 225.477 153.991 225.405C153.811 225.881 153.639 226.405 153.474 226.973L149.191 225.871C133.117 239.591 119.056 247.533 102.184 269.195L121.675 284.605C123.73 276.297 140.525 250.23 151.971 234.536C149.651 251.01 149.808 279.349 150.586 290.102L177.811 285.381C171.347 272.648 165.627 252.531 162.972 236.26C174.463 249.677 198.185 265.669 208.352 272.033Z" fill="#EEC959"/>
<path d="M167.002 302.349C241.961 291.939 243.493 236.573 234.983 211.308L214.813 217.42C220.084 236.056 217.707 272.793 166.515 280.372C119.65 287.31 91.7461 253.532 93.9404 227.085L72.4862 227.092C74.5201 254.532 81.2715 314.254 167.002 302.349Z" fill="#F3AD43"/>
<path d="M84.2443 287.082L89.6863 279.159L112.836 286.307C112.836 286.307 109.118 308.056 95.3218 311.319C77.9181 315.436 58.1663 307.806 57.1202 292.871C56.0742 277.937 74.2003 279.778 84.2443 287.082Z" fill="#F3AD43"/>
<path d="M91.8847 276.844C101.054 282.545 104.836 284.586 115.294 289.362C109.407 295.834 108.494 298.912 100.735 302.21C102.17 292.673 97.465 288.755 88.7012 290.722L91.8847 276.844Z" fill="#93463F"/>
<path d="M177.864 306.525L179.359 294.89L202.389 287.366C202.389 287.366 211.842 311.244 202.573 321.971C192.679 333.42 174.779 337.927 162.202 329.836C150.036 322.01 165.447 306.358 177.864 306.525Z" fill="#F3AD43"/>
<path d="M206.711 284.374C197.738 288.17 188.547 289.354 180.869 289.958L187.678 305.18C193.113 298.226 201.804 298.274 205.584 304.558L206.711 284.374Z" fill="#93463F"/>
<path d="M74.143 222.779C124.975 233.068 196.148 224.77 234.583 207.194C244.737 242.514 236.11 272.845 210.087 288.647C209.117 310.822 209.359 324.231 196.057 328.659C181.663 333.45 168.486 338.486 161.434 325.28C155.632 314.417 173.044 302.806 184.178 302.163L183.432 294.547C168.984 300.576 127.856 304.055 111.525 293.028C111.525 293.028 105.359 309.033 92.0754 313.986C81.1121 318.074 58.0441 305.748 55.7034 291.291C53.1766 275.683 77.4845 275.301 86.6742 285.957L90.6597 282.743C74.6632 268.26 76.3224 249.696 74.143 222.779Z" stroke="#2C2936" stroke-width="11.0219" stroke-linecap="round" stroke-linejoin="round"/>
<path d="M97.0781 261.06C94.8255 248.582 108.234 239.895 117.406 239.914C135.17 239.952 142.522 254.706 132.387 266.629C124.405 276.02 99.5335 274.661 97.0781 261.06Z" fill="white" stroke="#2C2936" stroke-width="10.333"/>
<path d="M106.047 257.803C106.219 262.461 110.838 265.026 116.399 265.268C121.875 265.507 127.221 260.382 126.112 255.854C124.821 250.584 120.308 247.931 114.767 248.469C109.226 249.007 105.876 253.146 106.047 257.803Z" fill="#2C2936"/>
<path d="M165.013 270.509C148.566 259.882 160.073 245.724 166.613 241.964C181.492 233.409 198.15 243.822 198.444 255.833C198.673 265.197 181.991 281.48 165.013 270.509Z" fill="white" stroke="#2C2936" stroke-width="10.333"/>
<path d="M165.893 257.731C167.227 262.077 170.469 265.551 176.461 264.969C182.453 264.387 186.672 260.099 186.233 255.578C185.794 251.057 179.345 247.451 173.519 248.54C166.816 249.794 164.995 254.809 165.893 257.731Z" fill="#2C2936"/>
<path d="M129.892 282.48C130.268 271.595 142.328 276.217 146.033 275.944C149.297 275.704 162.091 269.398 162.257 280.891C162.424 292.383 155.519 286.807 148.508 285.641C144.473 284.969 129.516 293.365 129.892 282.48Z" fill="#2C2936"/>
<path d="M102.865 727.34C141.446 761.999 206.987 790.963 249.025 795.32C243.95 819.297 222.007 853.409 184.676 852L187.77 863.316C200.044 861.428 197.508 866.185 191.407 879.302C185.094 892.876 180.303 884.393 166.721 872.758C155.955 863.535 160.824 847.744 160.824 847.744C147.795 844.723 132.557 839.915 122.81 833.103C122.81 833.103 115.453 839.759 101.463 837.468C83.8144 834.578 78.4645 839.383 83.2405 825.194C88.0165 811.005 88.4125 815.585 94.8766 826.189L104.188 817.604C73.8139 789.802 87.7971 746.67 102.865 727.34Z" fill="#F4EA9B"/>
<path d="M193.522 837.881L214.73 824.952C209.019 819.568 179.809 788.958 180.913 773.517C177.314 773.319 174.398 777.371 172.571 772.629C172.528 772.487 172.48 772.342 172.413 772.19C172.169 771.633 171.681 770.992 170.338 770.118C169.942 770.437 169.527 770.802 169.097 771.207L165.966 768.084C145.153 771.75 129.006 771.46 103.476 781.565L112.453 804.733C118.439 798.618 146.138 784.677 163.964 776.962C153.606 789.979 139.362 814.48 134.576 824.14L160.432 833.886C161.322 819.635 166.601 799.397 172.569 784.029C175.663 801.421 187.989 827.239 193.522 837.881Z" fill="#EEC959"/>
<path d="M142.508 843.023C212.382 872.089 241.795 825.157 247.282 799.068L226.8 794.1C221.886 812.833 196.435 844.732 148.477 825.287C104.573 807.486 102.429 762.773 117.74 741.096L99.249 730.216C87.0782 754.894 62.5927 809.782 142.508 843.023Z" fill="#F3AD43"/>
<path d="M96.1177 822.826L104.188 817.604L122.81 833.103C122.81 833.103 107.441 851.345 93.4509 849.054C75.802 846.163 58.3648 831.793 63.1407 817.604C67.9167 803.415 89.6536 812.222 96.1177 822.826Z" fill="#F3AD43"/>
<path d="M104.595 810.196C113.472 818.873 118.085 823.733 128.237 830.309L106.195 839.41C110.262 830.665 105.506 824.254 96.5507 825.287L104.595 810.196Z" fill="#93463F"/>
<path d="M187.481 860.42L184.676 852L160.824 847.744C160.824 847.744 153.622 875.21 166.815 880.397C182.083 886.399 203.524 886.325 208.134 876.825C215.835 860.957 200.645 855.078 187.481 860.42Z" fill="#F3AD43"/>
<path d="M160.63 842.336C169.956 845.154 179.071 845.975 186.77 845.757L185.415 861.798C179.908 854.158 167.425 854.093 162.421 862.401L160.63 842.336Z" fill="#93463F"/>
<path d="M102.865 727.34C141.446 761.998 206.987 790.962 249.025 795.32C243.951 819.297 224.128 852.116 186.797 850.707L188.17 856.975C200.901 854.147 217.655 859.057 212.304 871.942C206.563 885.768 176.264 885.488 162.682 873.853C151.916 864.629 160.824 847.744 160.824 847.744C147.795 844.723 132.557 839.915 122.81 833.102C122.81 833.102 108.661 845.953 94.4842 845.953C83.1179 845.953 65.0437 832.332 68.3072 818.054C72.1139 801.401 92.7157 809.653 96.8952 821.154L102.271 815.192C73.4803 788.886 87.7973 746.669 102.865 727.34Z" stroke="#2C2936" stroke-width="11.0219" stroke-linecap="round" stroke-linejoin="round"/>
<path d="M121.989 768.602C122.98 775.071 126.645 782.734 130.305 786.493" stroke="#2C2936" stroke-width="12.3996" stroke-linecap="round"/>
<path d="M205.392 815.299C199.192 816.332 191.27 816.677 184.037 815.299" stroke="#2C2936" stroke-width="12.3996" stroke-linecap="round"/>
<path d="M139.198 798.793C121.125 798.314 134.266 815.535 151.367 822.382C165.12 827.889 176.408 822.988 172.076 813.602C170.124 809.373 160.557 811.482 154.812 808.227C150.472 805.768 143.936 798.919 139.198 798.793Z" fill="white"/>
<path d="M153.243 805.184C151.865 808.628 147.459 815.761 145.68 818.495" stroke="#CFD6DC" stroke-width="9.64414"/>
<path d="M140.154 798.295C125.774 802.42 138.48 818.741 148.076 822.405C160.595 827.185 170.148 823.592 169.087 813.45C168.511 807.946 160.73 810.766 153.866 806.902C148.682 803.984 145.595 796.734 140.154 798.295Z" stroke="#2C2936" stroke-width="11.0219" stroke-linecap="round"/>
<path d="M338.743 630.49C322.521 617.806 300.808 636.343 289.91 648.775C316.979 650.464 323.226 658.739 333.881 653.965C343.596 649.612 345.658 635.898 338.743 630.49Z" fill="#5C9CE0" stroke="#2C2936" stroke-width="11.0219" stroke-linejoin="round"/>
<path d="M89.0403 1012.72C78.0797 997.171 98.1625 978.678 111.303 969.601C110.533 994.279 118.071 1000.49 112.446 1009.85C107.317 1018.38 93.7129 1019.35 89.0403 1012.72Z" fill="#5C9CE0" stroke="#2C2936" stroke-width="11.0219" stroke-linejoin="round"/>
<path d="M304 605.571C308.941 618.586 290.096 623.791 282.699 632.882C279.068 614.202 278.033 606.234 285.301 600.298C291.607 595.147 301.62 599.303 304 605.571Z" fill="#5C9CE0" stroke="#2C2936" stroke-width="11.0219" stroke-linejoin="round"/>
<path d="M114.391 86.7816L62.0306 32.2476L98.2539 11.4735L114.391 86.7816Z" fill="white"/>
<path d="M131.12 70.7518L120.437 26.632L145.913 25.836L131.12 70.7518Z" fill="white"/>
<path d="M60.2661 64.0061C71.218 72.6235 96.0503 93.144 97.7371 94.194L51.4442 90.4714L60.2661 64.0061Z" fill="white"/>
<path d="M114.391 86.7816L62.0306 32.2476L98.2539 11.4735L114.391 86.7816Z" stroke="#2C2936" stroke-width="9.64414" stroke-linecap="round" stroke-linejoin="round"/>
<path d="M131.12 70.7518L120.437 26.632L145.913 25.836L131.12 70.7518Z" stroke="#2C2936" stroke-width="9.64414" stroke-linecap="round" stroke-linejoin="round"/>
<path d="M60.2661 64.0061C71.218 72.6235 96.0503 93.144 97.7371 94.194L51.4442 90.4714L60.2661 64.0061Z" stroke="#2C2936" stroke-width="9.64414" stroke-linecap="round" stroke-linejoin="round"/>
<path d="M406.201 264.88C391.368 260.427 386.425 242.073 382.807 229.059C377.38 244.813 369.059 257.485 353.503 261.595C369.421 266.39 377.958 280.467 377.958 295.879C381.29 283.824 393.901 268.305 406.201 264.88Z" fill="white" stroke="#2C2936" stroke-width="9.64414" stroke-linecap="round" stroke-linejoin="round"/>
<path d="M340.759 234.57C332.492 230.782 326.637 221.482 324.129 210.46C320.512 220.855 315.653 228.07 305.282 230.782C315.894 233.945 320.782 248.168 320.782 258.336C324.129 248.692 332.558 236.83 340.759 234.57Z" fill="white" stroke="#2C2936" stroke-width="9.64414" stroke-linecap="round" stroke-linejoin="round"/>
</svg>
