<svg width="75" height="75" viewBox="0 0 75 75" fill="none" xmlns="http://www.w3.org/2000/svg">
<path d="M37.5 9.75V9.75098C44.4368 9.751 45.3392 9.78201 48.1094 9.90527H48.1123C51.0374 10.0393 53.1364 10.5113 55.0166 11.2412L55.0156 11.2422C57.0022 11.9911 58.8028 13.1609 60.293 14.6729C61.8214 16.1696 63.0043 17.9828 63.7588 19.9844L63.8926 20.3379C64.5001 22.0037 64.9079 23.8703 65.0645 26.3398L65.0947 26.8789V26.8848C65.218 29.6555 65.25 30.5609 65.25 37.5C65.25 44.4392 65.218 45.3446 65.0947 48.1123V48.1182C64.9573 51.0452 64.4855 53.1394 63.7598 55.0146L63.7578 55.0195C63.0001 56.9637 61.9658 58.6553 60.3105 60.3105L60.3096 60.3096C58.8115 61.8351 56.9989 63.0158 54.9971 63.7676L54.9961 63.7666C53.1222 64.4925 51.0257 64.9581 48.1182 65.0947H48.1123C45.3414 65.218 44.4393 65.25 37.5 65.25C30.5609 65.25 29.6555 65.218 26.8848 65.0947H26.8818C24.1356 64.969 22.1243 64.5462 20.335 63.8926L19.9805 63.7588C18.0322 63.0032 16.3404 61.9639 14.6895 60.3096C13.0345 58.6545 11.9998 56.9635 11.2422 55.0195V55.0186C10.511 53.139 10.0426 51.0425 9.90527 48.1182V48.1123C9.78198 45.3446 9.75 44.4389 9.75 37.5029C9.75 30.561 9.782 29.6555 9.90527 26.8818V26.8779C10.0393 23.9565 10.5111 21.8563 11.2422 19.9805H11.2432C11.9978 17.9805 13.1796 16.1686 14.707 14.6729C16.1965 13.1617 17.996 11.9921 19.9814 11.2432V11.2422C21.8612 10.511 23.9582 10.0426 26.8857 9.90527H26.8906C29.6576 9.78201 30.5664 9.751 37.4932 9.75098V9.75H37.5ZM32.9648 18.8457C30.1151 18.8581 29.1854 18.8947 27.3018 18.9814C25.0622 19.0848 23.9548 19.4466 23.2822 19.709L23.2783 19.7109C22.3744 20.0614 21.7918 20.4416 21.123 21.1104C20.4532 21.7802 20.0697 22.3663 19.7197 23.2666L19.7188 23.2695C19.4567 23.9415 19.0936 25.0519 18.9902 27.292C18.8715 29.9257 18.8467 30.687 18.8467 37.4873C18.8467 44.2896 18.8714 45.0559 18.9902 47.6914H18.9912C19.0915 49.9267 19.4554 51.038 19.7168 51.7119L19.7285 51.7412C19.9874 52.4363 20.378 53.0738 20.8789 53.6182L21.1006 53.8457L21.1221 53.8662L21.1426 53.8867C21.6603 54.4173 22.2753 54.8417 22.9531 55.1367L23.2471 55.2549L23.2822 55.2686C23.9545 55.5308 25.0612 55.8925 27.2988 55.9961C29.9355 56.1149 30.7063 56.1445 37.5029 56.1445C42.6003 56.1445 44.3065 56.1275 45.9531 56.0693L47.7041 55.9961C49.9471 55.8925 51.055 55.5301 51.7158 55.2705L51.7256 55.2666C52.6293 54.9162 53.2112 54.5359 53.8799 53.8672L53.9014 53.8457C54.508 53.2551 54.976 52.5375 55.2715 51.7441L55.2764 51.7305L55.2822 51.7178C55.545 51.038 55.9085 49.9285 56.0088 47.6943L56.0098 47.6914C56.1316 45.0577 56.1572 44.2891 56.1572 37.4932C56.1572 30.6975 56.1316 29.9327 56.0098 27.2988L56.0088 27.2959C55.9897 26.8714 55.9583 26.4876 55.9229 26.1396C55.6638 26.6934 55.3087 27.204 54.8682 27.6445C53.8725 28.64 52.5222 29.1991 51.1143 29.1992C50.7892 29.1992 50.4655 29.1683 50.1475 29.1094C51.7656 31.5869 52.6465 34.4995 52.6465 37.502C52.6464 41.5307 51.0618 45.3976 48.2354 48.2686C45.4088 51.1396 41.5665 52.7838 37.5381 52.8467C35.5028 52.8784 33.4814 52.505 31.5918 51.748C29.7023 50.9911 27.9817 49.8665 26.5312 48.4385C25.0807 47.0104 23.9289 45.3073 23.1426 43.4297C22.3564 41.5523 21.9512 39.5373 21.9512 37.502C21.9512 35.4664 22.3563 33.4508 23.1426 31.5732C23.9288 29.6958 25.0809 27.9935 26.5312 26.5654C27.9818 25.1374 29.7022 24.0118 31.5918 23.2549C33.4814 22.498 35.5028 22.1245 37.5381 22.1562C40.5357 22.203 43.4303 23.1254 45.8799 24.7773C45.8302 24.4847 45.8037 24.1879 45.8037 23.8896C45.8037 23.1924 45.9412 22.5016 46.208 21.8574C46.4749 21.2132 46.8663 20.6278 47.3594 20.1348C47.7976 19.6965 48.3086 19.3386 48.8691 19.0771C48.5187 19.0411 48.132 19.0104 47.7041 18.9912L47.7012 18.9902C45.0684 18.8684 44.3045 18.8467 37.5029 18.8467H32.9648V18.8457ZM37.5029 31.249C35.8451 31.2491 34.2552 31.9078 33.083 33.0801C31.9108 34.2524 31.252 35.8422 31.252 37.5L31.2598 37.8096C31.3363 39.3547 31.984 40.8208 33.083 41.9199C34.2552 43.0922 35.8451 43.7509 37.5029 43.751C38.3238 43.751 39.1371 43.5895 39.8955 43.2754C40.6539 42.9612 41.3434 42.5004 41.9238 41.9199C42.504 41.3396 42.9642 40.6507 43.2783 39.8926C43.5925 39.1342 43.7539 38.3209 43.7539 37.5C43.7539 36.6791 43.5925 35.8658 43.2783 35.1074C42.9642 34.3493 42.504 33.6604 41.9238 33.0801C41.3434 32.4996 40.6539 32.0388 39.8955 31.7246C39.1371 31.4105 38.3238 31.249 37.5029 31.249Z" fill="#222123" stroke="#222123" stroke-width="4.5"/>
<path d="M37.5 12C30.5799 12 29.7098 12.0319 26.9908 12.153C24.2719 12.2805 22.4199 12.7076 20.7975 13.3387C19.0949 13.9773 17.5531 14.9816 16.2808 16.2808C14.9816 17.5531 13.9773 19.0949 13.3387 20.7975C12.7076 22.4168 12.2773 24.2719 12.153 26.9812C12.0319 29.7066 12 30.5736 12 37.5032C12 44.4264 12.0319 45.2934 12.153 48.0124C12.2805 50.7281 12.7076 52.5801 13.3387 54.2025C13.9922 55.8791 14.8624 57.3007 16.2808 58.7192C17.6961 60.1376 19.1177 61.011 20.7943 61.6612C22.4199 62.2924 24.2687 62.7227 26.9844 62.847C29.7066 62.9681 30.5736 63 37.5 63C44.4264 63 45.2903 62.9681 48.0124 62.847C50.7249 62.7195 52.5833 62.2924 54.2057 61.6612C55.9072 61.0223 57.4478 60.018 58.7192 58.7192C60.1376 57.3007 61.0078 55.8791 61.6612 54.2025C62.2892 52.5801 62.7195 50.7281 62.847 48.0124C62.9681 45.2934 63 44.4264 63 37.5C63 30.5736 62.9681 29.7066 62.847 26.9844C62.7195 24.2719 62.2892 22.4168 61.6612 20.7975C61.0227 19.0949 60.0184 17.5531 58.7192 16.2808C57.4469 14.9816 55.9051 13.9773 54.2025 13.3387C52.5769 12.7076 50.7217 12.2773 48.0092 12.153C45.2871 12.0319 44.4233 12 37.4936 12H37.5ZM35.2146 16.5964H37.5032C44.3117 16.5964 45.1181 16.6187 47.8052 16.743C50.2914 16.8546 51.6429 17.2721 52.5418 17.6196C53.7307 18.0818 54.5818 18.6364 55.4743 19.5289C56.3668 20.4214 56.9183 21.2693 57.3804 22.4614C57.7311 23.3571 58.1454 24.7086 58.257 27.1948C58.3813 29.8819 58.4068 30.6883 58.4068 37.4936C58.4068 44.2989 58.3813 45.1086 58.257 47.7956C58.1454 50.2819 57.7279 51.6302 57.3804 52.5291C56.9687 53.6348 56.3166 54.6353 55.4711 55.4584C54.5786 56.3509 53.7308 56.9023 52.5386 57.3645C51.6461 57.7151 50.2946 58.1295 47.8052 58.2443C45.1181 58.3654 44.3117 58.3941 37.5032 58.3941C30.6947 58.3941 29.8851 58.3654 27.198 58.2443C24.7118 58.1295 23.3634 57.7151 22.4646 57.3645C21.358 56.9541 20.3563 56.3031 19.5321 55.4584C18.6851 54.6347 18.0318 53.6331 17.6196 52.5259C17.2721 51.6302 16.8546 50.2787 16.743 47.7924C16.6219 45.1054 16.5964 44.2989 16.5964 37.4872C16.5964 30.6756 16.6219 29.8755 16.743 27.1884C16.8578 24.7022 17.2721 23.3507 17.6228 22.4518C18.0849 21.2629 18.6396 20.4118 19.5321 19.5193C20.4246 18.6268 21.2724 18.0754 22.4646 17.6132C23.3634 17.2626 24.7118 16.8482 27.198 16.7334C29.5504 16.6251 30.462 16.5932 35.2146 16.59V16.5964ZM51.1138 20.8294C50.712 20.8294 50.3141 20.9085 49.9428 21.0623C49.5715 21.2161 49.2342 21.4415 48.9501 21.7256C48.6659 22.0098 48.4405 22.3471 48.2867 22.7184C48.133 23.0896 48.0538 23.4875 48.0538 23.8894C48.0538 24.2912 48.133 24.6891 48.2867 25.0604C48.4405 25.4316 48.6659 25.769 48.9501 26.0531C49.2342 26.3373 49.5715 26.5627 49.9428 26.7164C50.3141 26.8702 50.712 26.9494 51.1138 26.9494C51.9254 26.9494 52.7037 26.627 53.2776 26.0531C53.8514 25.4793 54.1738 24.7009 54.1738 23.8894C54.1738 23.0778 53.8514 22.2995 53.2776 21.7256C52.7037 21.1518 51.9254 20.8294 51.1138 20.8294ZM37.5032 24.4057C35.7662 24.3787 34.0412 24.6974 32.4286 25.3433C30.816 25.9893 29.348 26.9496 28.1101 28.1683C26.8722 29.3871 25.8891 30.8399 25.2181 32.4423C24.547 34.0446 24.2014 35.7644 24.2014 37.5016C24.2014 39.2388 24.547 40.9586 25.2181 42.5609C25.8891 44.1633 26.8722 45.6161 28.1101 46.8348C29.348 48.0536 30.816 49.0139 32.4286 49.6599C34.0412 50.3058 35.7662 50.6245 37.5032 50.5974C40.941 50.5438 44.2199 49.1405 46.6321 46.6904C49.0443 44.2402 50.3963 40.9399 50.3963 37.5016C50.3963 34.0633 49.0443 30.7629 46.6321 28.3128C44.2199 25.8627 40.941 24.4594 37.5032 24.4057ZM37.5032 28.9989C38.6196 28.9989 39.725 29.2188 40.7564 29.646C41.7878 30.0733 42.725 30.6994 43.5143 31.4888C44.3037 32.2782 44.9299 33.2154 45.3571 34.2468C45.7844 35.2782 46.0043 36.3836 46.0043 37.5C46.0043 38.6164 45.7844 39.7218 45.3571 40.7532C44.9299 41.7846 44.3037 42.7218 43.5143 43.5112C42.725 44.3006 41.7878 44.9267 40.7564 45.354C39.725 45.7812 38.6196 46.0011 37.5032 46.0011C35.2486 46.0011 33.0863 45.1054 31.492 43.5112C29.8978 41.9169 29.0021 39.7546 29.0021 37.5C29.0021 35.2454 29.8978 33.0831 31.492 31.4888C33.0863 29.8946 35.2486 28.9989 37.5032 28.9989Z" fill="white"/>
</svg>
