<svg width="75" height="75" viewBox="0 0 75 75" fill="none" xmlns="http://www.w3.org/2000/svg">
<path d="M42.9014 16.8159C43.4148 15.9043 44.4429 15.4197 45.4688 15.5972L45.4697 15.5962C45.4745 15.597 45.4796 15.5983 45.4844 15.5991C45.4872 15.5996 45.4904 15.5996 45.4932 15.6001L45.4922 15.6011C49.4533 16.2871 53.2419 17.4794 56.7764 19.0962C56.7815 19.0984 56.7878 19.1007 56.793 19.103C56.804 19.1081 56.8152 19.1136 56.8262 19.1187H56.8252C57.1826 19.2821 57.5568 19.5601 57.8369 19.979H57.8379C57.8403 19.9825 57.8423 19.9862 57.8447 19.9897C57.8566 20.0077 57.8694 20.025 57.8809 20.0435C64.1153 29.241 67.2194 39.6807 66.0615 51.6597L66.0596 51.6587C65.9914 52.3724 65.6207 53.0018 65.0713 53.4087L65.0645 53.4146C60.3047 56.91 55.6775 59.0401 51.127 60.4478L51.1191 60.4497C50.112 60.7571 49.0065 60.3926 48.3857 59.5181V59.5171C47.3421 58.0639 46.3897 56.5284 45.5508 54.9126C40.2392 56.2342 34.7646 56.2313 29.4258 54.9038C28.5961 56.5359 27.6353 58.0846 26.5635 59.5483L26.5283 59.5952C25.9295 60.3702 24.88 60.7639 23.8506 60.4497L23.8398 60.4468C19.3121 59.0394 14.6861 56.9096 9.92676 53.4146L9.89844 53.3931L9.87109 53.3716C9.37979 52.9873 8.99743 52.3821 8.92969 51.6489L8.92871 51.6499C7.95967 41.2717 9.95265 30.7241 17.1377 19.9897L17.1387 19.9907C17.4144 19.5764 17.795 19.2747 18.209 19.0962C21.7525 17.4741 25.5495 16.2796 29.5176 15.5962L29.5391 15.5923L29.5615 15.5894C30.4746 15.4502 31.4179 15.8324 31.9648 16.6235L32.0684 16.7866L32.084 16.814C32.3216 17.2348 32.5759 17.7134 32.8213 18.2036C35.9171 17.8604 39.0423 17.8613 42.1777 18.2056C42.413 17.7238 42.6604 17.2447 42.9004 16.8179L42.9014 16.8159ZM28.7109 37.0317C27.5771 37.0317 26.248 38.1354 26.248 40.0737C26.2483 41.998 27.6066 43.1147 28.7109 43.1147C29.8446 43.1147 31.1736 42.0117 31.1738 40.0737V40.0405C31.2006 38.1679 29.8809 37.0318 28.7109 37.0317ZM46.3213 37.0317C45.1876 37.032 43.8584 38.1356 43.8584 40.0737C43.8586 41.9977 45.2172 43.1144 46.3213 43.1147C47.4698 43.1147 48.7849 42.0187 48.7852 40.0737V40.0405C48.8119 38.1678 47.4914 37.0317 46.3213 37.0317Z" fill="#222123" stroke="#222123" stroke-width="4.6"/>
<rect x="21" y="29" width="36" height="21" fill="#222123"/>
<path d="M55.8667 21.2086C52.4887 19.6586 48.8663 18.5167 45.0788 17.8626C45.0098 17.85 44.9409 17.8815 44.9054 17.9446C44.4395 18.7732 43.9234 19.8542 43.5621 20.7038C39.4884 20.094 35.4356 20.094 31.4455 20.7038C31.084 19.8353 30.5492 18.7732 30.0813 17.9446C30.0457 17.8836 29.9768 17.8521 29.9079 17.8626C26.1225 18.5146 22.5 19.6565 19.1199 21.2086C19.0906 21.2212 19.0656 21.2423 19.0489 21.2696C12.1779 31.5347 10.2957 41.5475 11.219 51.4362C11.2232 51.4846 11.2504 51.5309 11.288 51.5603C15.8213 54.8894 20.2125 56.9105 24.5222 58.2502C24.5912 58.2712 24.6643 58.246 24.7082 58.1892C25.7277 56.797 26.6364 55.329 27.4156 53.7853C27.4616 53.6949 27.4177 53.5877 27.3237 53.5519C25.8822 53.0051 24.5097 52.3384 23.1894 51.5813C23.085 51.5204 23.0766 51.371 23.1727 51.2995C23.4505 51.0913 23.7284 50.8747 23.9937 50.6559C24.0417 50.616 24.1086 50.6076 24.1651 50.6328C32.8388 54.5929 42.2292 54.5929 50.8007 50.6328C50.8571 50.6055 50.924 50.6139 50.9741 50.6538C51.2395 50.8726 51.5173 51.0913 51.7972 51.2995C51.8933 51.371 51.887 51.5204 51.7826 51.5813C50.4623 52.3531 49.0898 53.0051 47.6462 53.5498C47.5522 53.5856 47.5104 53.6949 47.5564 53.7853C48.3523 55.3269 49.2611 56.7948 50.2617 58.1871C50.3035 58.246 50.3787 58.2712 50.4477 58.2502C54.7783 56.9105 59.1695 54.8894 63.7028 51.5603C63.7425 51.5309 63.7676 51.4867 63.7718 51.4383C64.8769 40.0059 61.9208 30.0752 55.9356 21.2717C55.921 21.2423 55.896 21.2212 55.8667 21.2086ZM28.7109 45.4151C26.0995 45.4151 23.9478 43.0176 23.9478 40.0733C23.9478 37.1289 26.0577 34.7314 28.7109 34.7314C31.3848 34.7314 33.5157 37.15 33.4739 40.0733C33.4739 43.0176 31.3639 45.4151 28.7109 45.4151ZM46.3217 45.4151C43.7104 45.4151 41.5587 43.0176 41.5587 40.0733C41.5587 37.1289 43.6686 34.7314 46.3217 34.7314C48.9958 34.7314 51.1266 37.15 51.0849 40.0733C51.0849 43.0176 48.9958 45.4151 46.3217 45.4151Z" fill="white"/>
</svg>
