<svg width="75" height="75" viewBox="0 0 75 75" fill="none" xmlns="http://www.w3.org/2000/svg">
<path d="M51.583 10.75C58.5801 10.75 64.25 16.4226 64.25 23.417V52.583C64.25 59.5774 58.5801 65.25 51.583 65.25H22.417C15.4223 65.25 9.75 59.5777 9.75 52.583V23.417C9.75 16.4223 15.4223 10.75 22.417 10.75H51.583ZM47.0645 32.0127C44.791 31.6005 42.4872 32.5214 41.3896 33.9189C41.9607 33.7267 42.5619 33.6163 43.1787 33.5967C44.837 33.5439 46.5136 34.1685 47.7578 35.499C49.0044 36.8323 49.667 38.7048 49.667 40.9082V50.333H51.417V38.502C51.417 36.1728 50.8017 34.6736 50.0439 33.7314C49.2845 32.7871 48.2413 32.2261 47.0645 32.0127ZM35.083 50.333H36.833V40.9082C36.8331 37.7547 38.3824 35.3824 40.5371 34.2783L36.833 33.3438V31.917H35.083V50.333ZM24.667 50.333H26.417V31.917H24.667V50.333ZM25.542 21.9248C24.7889 21.9248 24.1457 22.5466 24.1455 23.3496C24.1455 24.1528 24.7888 24.7754 25.542 24.7754C26.2963 24.7752 26.9375 24.1536 26.9375 23.3496C26.9373 22.5467 26.2949 21.925 25.542 21.9248Z" fill="#222123" stroke="#222123" stroke-width="4.5"/>
<circle cx="25.5" cy="23.5" r="5.5" fill="#222123"/>
<path d="M51.5833 13H22.4167C16.6646 13 12 17.6646 12 23.4167V52.5833C12 58.3354 16.6646 63 22.4167 63H51.5833C57.3375 63 62 58.3354 62 52.5833V23.4167C62 17.6646 57.3375 13 51.5833 13ZM28.6667 52.5833H22.4167V29.6667H28.6667V52.5833ZM25.5417 27.025C23.5292 27.025 21.8958 25.3792 21.8958 23.35C21.8958 21.3208 23.5292 19.675 25.5417 19.675C27.5542 19.675 29.1875 21.3208 29.1875 23.35C29.1875 25.3792 27.5562 27.025 25.5417 27.025ZM53.6667 52.5833H47.4167V40.9083C47.4167 33.8917 39.0833 34.4229 39.0833 40.9083V52.5833H32.8333V29.6667H39.0833V33.3437C41.9917 27.9563 53.6667 27.5583 53.6667 38.5021V52.5833Z" fill="white"/>
</svg>
