<svg width="75" height="75" viewBox="0 0 75 75" fill="none" xmlns="http://www.w3.org/2000/svg">
<circle cx="37" cy="38" r="30" fill="#222123"/>
<path d="M40.5118 31.5485C40.5118 28.9408 42.6297 26.8267 45.2404 26.8267C47.851 26.8267 49.9689 28.9408 49.9689 31.5468C49.9689 34.1544 47.8527 36.2669 45.2404 36.2669C45.2404 36.2669 45.2404 36.2669 45.2387 36.2669C42.628 36.2669 40.5118 34.1544 40.5118 31.5485C40.5118 31.5485 40.5101 31.5485 40.5101 31.5468L40.5118 31.5485ZM51.5173 31.5585C51.5173 28.0889 48.6995 25.2762 45.2237 25.2762C41.7478 25.2762 38.93 28.0889 38.93 31.5585C38.93 35.0281 41.7478 37.8408 45.2237 37.8408C48.6978 37.8358 51.5123 35.0247 51.5173 31.5585ZM27.6923 50.9406L24.6173 49.6701C25.4926 51.4674 27.3082 52.6845 29.4077 52.6845C31.6075 52.6845 33.4966 51.3491 34.3017 49.445L34.315 49.41C34.5739 48.8065 34.7259 48.1029 34.7259 47.3659C34.7259 44.4365 32.3474 42.0623 29.4127 42.0623C28.7363 42.0623 28.0899 42.189 27.4952 42.4175L27.532 42.4058L30.7105 43.7179C32.1336 44.3248 33.1141 45.712 33.1141 47.3259C33.1141 49.4867 31.3586 51.239 29.1939 51.239C28.6527 51.239 28.1383 51.129 27.669 50.9322L27.694 50.9422L27.6923 50.9406ZM36.9574 13C23.834 13.0017 13.0707 23.0804 12.0067 35.9051L12 35.9951L25.4258 41.5338C26.5415 40.7635 27.9228 40.305 29.4127 40.305C29.4144 40.305 29.4161 40.305 29.4161 40.305C29.548 40.305 29.6766 40.3133 29.8086 40.3183L35.7799 31.6885V31.5651C35.7849 26.3632 40.0107 22.1484 45.222 22.1484C50.4366 22.1484 54.6641 26.3682 54.6641 31.5735C54.6641 36.7787 50.4366 40.9986 45.222 40.9986H45.0032L36.4947 47.0642C36.4947 47.1725 36.5031 47.2826 36.5031 47.3959C36.5031 47.3976 36.5031 47.3993 36.5031 47.4009C36.5031 51.3057 33.3312 54.4719 29.4194 54.4719C26.0003 54.4719 23.1458 52.0527 22.4827 48.8365L22.4744 48.7915L12.8619 44.8183C15.9369 55.3972 25.5577 63 36.9557 63C50.7874 63 62 51.8076 62 38.0008C62 24.1941 50.7874 13.0017 36.9557 13.0017L36.9574 13Z" fill="white"/>
</svg>
