<svg width="75" height="75" viewBox="0 0 75 75" fill="none" xmlns="http://www.w3.org/2000/svg">
<path d="M38.9773 17.1797C43.8853 12.7358 51.263 12.7404 56.1589 17.0352C57.8945 16.5757 59.5611 15.8715 61.1111 14.9404C61.9201 14.4544 62.9459 14.5202 63.6863 15.1055C64.4265 15.6907 64.7271 16.673 64.4412 17.5723C64.2938 18.0353 64.1179 18.4864 63.9226 18.9268C64.5012 18.9779 65.054 19.2494 65.45 19.7139C66.1043 20.4818 66.1728 21.5899 65.6179 22.4326C64.2528 24.5059 62.5821 26.3488 60.6697 27.9043C60.67 28.0138 60.6716 28.1199 60.6716 28.2217C60.6716 43.5299 49.1546 61.418 27.8875 61.418C27.8196 61.418 27.7526 61.4131 27.6863 61.4072C21.4879 61.377 15.4272 59.5612 10.2117 56.1699C9.32687 55.5946 8.95553 54.485 9.31616 53.4932C9.67703 52.5013 10.6747 51.8889 11.7224 52.0166C12.478 52.1087 13.2393 52.1543 14.0046 52.1562C16.6272 52.1583 19.2049 51.6156 21.5876 50.582C18.578 49.0196 16.2174 46.2959 15.1394 42.9014C14.9318 42.2475 15.0329 41.5414 15.4011 40.9766C12.8364 38.5541 11.2713 35.1142 11.2712 31.373V31.2354C11.2712 30.4289 11.6998 29.683 12.3962 29.2764C12.4678 29.2346 12.5413 29.1974 12.616 29.1641C10.8498 25.3756 10.9076 20.8161 13.1199 16.9541L13.1931 16.835C13.5769 16.2515 14.2105 15.875 14.9119 15.8203C15.6599 15.762 16.3888 16.0777 16.8582 16.6631C21.3356 22.2468 27.697 25.8782 34.6453 26.9062C34.6642 23.3562 36.1063 19.9095 38.7302 17.4102L38.9773 17.1797Z" fill="white" stroke="#222123" stroke-width="4.53654" stroke-linejoin="round"/>
</svg>
