<svg width="75" height="75" viewBox="0 0 75 75" fill="none" xmlns="http://www.w3.org/2000/svg">
<path d="M37.1953 16.7002C37.3217 16.7005 37.5073 16.7011 37.7441 16.7021C38.218 16.7043 38.899 16.7091 39.7285 16.7178C41.3866 16.7351 43.6438 16.7693 46.0361 16.8389C48.425 16.9083 50.9673 17.0133 53.1885 17.1719C55.3459 17.3259 57.3932 17.5422 58.6807 17.8799L58.6797 17.8809C61.7798 18.692 64.2457 21.085 65.0889 24.1699H65.0898C65.727 26.4972 66.0146 29.906 66.1553 32.5635C66.2274 33.927 66.2642 35.1564 66.2822 36.0449C66.2912 36.4898 66.2956 36.8507 66.2979 37.1016C66.299 37.227 66.2995 37.3251 66.2998 37.3926V37.6074C66.2995 37.6749 66.299 37.773 66.2979 37.8984C66.2956 38.1493 66.2912 38.5102 66.2822 38.9551C66.2642 39.8436 66.2274 41.073 66.1553 42.4365C66.0146 45.094 65.727 48.5026 65.0898 50.8301L65.0889 50.8291C64.246 53.9144 61.7803 56.3097 58.6797 57.1211L58.6787 57.1201C57.3912 57.4574 55.345 57.6742 53.1885 57.8281C50.9673 57.9867 48.425 58.0917 46.0361 58.1611C43.6438 58.2307 41.3866 58.2649 39.7285 58.2822C38.899 58.2909 38.218 58.2957 37.7441 58.2979C37.5073 58.2989 37.3217 58.2995 37.1953 58.2998H36.8047C36.6783 58.2995 36.4928 58.2989 36.2559 58.2979C35.782 58.2957 35.101 58.2909 34.2715 58.2822C32.6134 58.2649 30.3562 58.2307 27.9639 58.1611C25.575 58.0917 23.0328 57.9867 20.8115 57.8281C18.6545 57.6741 16.6077 57.4576 15.3203 57.1201C12.2202 56.3087 9.75398 53.9146 8.91113 50.8291L8.91016 50.8301C8.27301 48.5026 7.98538 45.094 7.84473 42.4365C7.77257 41.073 7.73577 39.8436 7.71777 38.9551C7.70876 38.5102 7.70442 38.1493 7.70215 37.8984C7.70101 37.773 7.70049 37.6749 7.7002 37.6074V37.3926C7.70049 37.3251 7.70101 37.227 7.70215 37.1016C7.70442 36.8507 7.70876 36.4898 7.71777 36.0449C7.73577 35.1564 7.77257 33.927 7.84473 32.5635C7.98538 29.906 8.273 26.4972 8.91016 24.1699H8.91113C9.75418 21.0851 12.2201 18.6922 15.3193 17.8809V17.8799C16.6068 17.5422 18.6541 17.3259 20.8115 17.1719C23.0328 17.0133 25.575 16.9083 27.9639 16.8389C30.3562 16.7693 32.6134 16.7351 34.2715 16.7178C35.101 16.7091 35.782 16.7043 36.2559 16.7021C36.4928 16.7011 36.6783 16.7005 36.8047 16.7002H37.1953ZM33.7773 41.4072L40.8398 37.5L33.7773 33.5918V41.4072Z" fill="#222123" stroke="#222123" stroke-width="4.6"/>
<path fill-rule="evenodd" clip-rule="evenodd" d="M58.0974 20.1046C60.421 20.7124 62.2505 22.5033 62.8715 24.7777C64 28.8997 64 37.5 64 37.5C64 37.5 64 46.1002 62.8715 50.2226C62.2505 52.4966 60.421 54.2876 58.0974 54.8956C53.8863 56 37.0001 56 37.0001 56C37.0001 56 20.1138 56 15.9027 54.8956C13.5793 54.2876 11.7494 52.4966 11.1285 50.2226C10 46.1002 10 37.5 10 37.5C10 37.5 10 28.8997 11.1285 24.7777C11.7494 22.5033 13.5793 20.7124 15.9027 20.1046C20.1138 19 37.0001 19 37.0001 19C37.0001 19 53.8863 19 58.0974 20.1046ZM31.4773 45.3083L45.591 37.5004L31.4773 29.6916V45.3083Z" fill="white"/>
</svg>
