<svg width="75" height="75" viewBox="0 0 75 75" fill="none" xmlns="http://www.w3.org/2000/svg">
<path d="M58.5869 13.3599C60.156 13.336 61.8463 13.8094 63.0908 15.2544C64.2776 16.6326 64.75 18.5447 64.75 20.7397C64.7499 21.6253 64.5207 24.9488 64.2412 28.1665C64.099 29.8033 63.9395 31.4618 63.7822 32.8345C63.6345 34.124 63.4675 35.3732 63.2812 36.0415C62.1873 39.9671 59.5938 42.4815 56.4521 43.8071C56.4136 43.8234 56.3736 43.8362 56.335 43.8521C57.2459 44.6255 57.9752 45.5106 58.4893 46.5122C60.3357 50.1099 58.8938 54.0036 55.793 57.1987C52.9749 60.1024 50.2486 61.6973 47.5723 61.9731C44.8039 62.2585 42.5809 61.0882 40.9434 59.5405C39.4453 58.1246 38.3357 56.3064 37.5312 54.6831C36.7268 56.3064 35.6172 58.1246 34.1191 59.5405C32.4816 61.0883 30.2586 62.2585 27.4902 61.9731C24.8139 61.6973 22.0877 60.1023 19.2695 57.1987C16.1686 54.0035 14.7257 50.109 16.5723 46.5112C17.0862 45.5101 17.8151 44.6253 18.7256 43.8521C18.6875 43.8364 18.6483 43.8232 18.6104 43.8071C15.4688 42.4815 12.8751 39.967 11.7812 36.0415C11.595 35.3732 11.428 34.124 11.2803 32.8345C11.123 31.4618 10.9635 29.8033 10.8213 28.1665C10.5418 24.9487 10.3116 21.6252 10.3115 20.7397C10.3115 18.5447 10.7839 16.6326 11.9707 15.2544C13.2151 13.8092 14.9055 13.3361 16.4746 13.3599C19.3885 13.4041 22.5663 15.1338 24.7461 16.7739C24.7515 16.7779 24.7573 16.7816 24.7627 16.7856C27.8565 19.1179 30.9693 22.5628 33.5635 25.9507C35.0555 27.8992 36.414 29.8804 37.5312 31.6919C38.6484 29.8805 40.0071 27.8992 41.499 25.9507C44.0931 22.5628 47.2059 19.1179 50.2998 16.7856C52.48 15.1421 55.666 13.4044 58.5869 13.3599Z" fill="white" stroke="#222123" stroke-width="4.53654" stroke-linejoin="round"/>
</svg>
