<svg width="75" height="75" viewBox="0 0 75 75" fill="none" xmlns="http://www.w3.org/2000/svg">
<path d="M57.8672 15.7314C61.9004 15.7314 65.2322 18.9942 65.2324 23.043V53.3027C65.2324 57.3516 61.9005 60.6143 57.8672 60.6143H17.0967C13.0634 60.6143 9.73145 57.3516 9.73145 53.3027V53.3008L9.75684 23.041C9.75807 19.0079 13.0493 15.7314 17.0967 15.7314H57.8672ZM37.6709 37.9102C37.5447 37.9207 37.4182 37.9207 37.292 37.9102L37.4814 38.0273L37.6709 37.9102Z" fill="#222123" stroke="#222123" stroke-width="4.53654" stroke-linejoin="round"/>
<path d="M57.8673 18H17.0964C14.2934 18 12.0255 20.2695 12.0255 23.0433L12 53.303C12 56.0768 14.2934 58.3463 17.0964 58.3463H57.8673C60.6703 58.3463 62.9637 56.0768 62.9637 53.303V23.0433C62.9637 20.2695 60.6703 18 57.8673 18ZM57.8673 28.0866L37.4819 40.6948L17.0964 28.0866V23.0433L37.4819 35.6515L57.8673 23.0433V28.0866Z" fill="white"/>
</svg>
