<svg width="75" height="75" viewBox="0 0 75 75" fill="none" xmlns="http://www.w3.org/2000/svg">
<path d="M37 9.75C52.6193 9.75 65.2498 22.4688 65.25 38.1445C65.25 50.6677 57.1713 61.316 46.0068 65.082L45.8711 65.1279L45.7314 65.1562C44.5577 65.3923 43.3301 65.1975 42.3965 64.3525C41.5364 63.5741 41.25 62.5308 41.25 61.708C41.25 61.2571 41.2586 60.3168 41.2666 59.0791C41.2747 57.8316 41.2822 56.2601 41.2822 54.5186C41.2822 52.557 40.642 51.6752 40.3037 51.3818L37.0342 48.5479L33.8008 51.375C33.5236 51.6174 33.059 52.2336 32.8926 53.4766L32.7822 54.3027V56.8389C32.7822 57.9233 32.7907 58.9775 32.7988 59.8408C32.8068 60.6907 32.8154 61.3835 32.8154 61.708C32.8154 62.5412 32.5218 63.5808 31.6553 64.3525C30.7333 65.1737 29.5333 65.3676 28.3877 65.166L28.2217 65.1367L28.0625 65.083C16.8334 61.3191 8.75 50.7046 8.75 38.1445C8.75025 22.4688 21.3807 9.75 37 9.75ZM49.0859 25.1797C48.2168 25.4232 46.8171 25.9997 44.835 27.3545L43.9658 27.9492L42.9531 27.6621C41.0827 27.1331 39.0791 26.8653 37.0654 26.8652C35.0518 26.8652 33.0482 27.1332 31.1777 27.6621L30.1699 27.9473L29.3037 27.3604C27.3204 26.0177 25.9168 25.4397 25.041 25.1924C24.6237 27.2417 25.1367 28.6392 25.2461 28.9141L25.7637 30.2168L24.8223 31.2559C23.5282 32.6848 22.7402 34.5042 22.7402 36.7725C22.7403 41.2859 24.0801 43.6497 25.6914 45.0166C27.4078 46.4725 29.8159 47.1338 32.5723 47.4453L37.0469 47.9512L41.5244 47.4453C44.2869 47.1332 46.704 46.4783 48.4277 45.0244C50.0434 43.6616 51.3896 41.3005 51.3896 36.7725C51.3896 34.4752 50.6043 32.6876 49.3076 31.2559L48.3662 30.2168L48.8848 28.9141C48.9946 28.6379 49.5078 27.2353 49.0859 25.1797Z" fill="white" stroke="#222123" stroke-width="4.5"/>
</svg>
