<svg width="75" height="75" viewBox="0 0 75 75" fill="none" xmlns="http://www.w3.org/2000/svg">
<path d="M37.5 9.75V9.75098C44.4368 9.751 45.3392 9.78201 48.1094 9.90527H48.1123C51.0374 10.0393 53.1364 10.5113 55.0166 11.2412L55.0156 11.2422C57.0022 11.9911 58.8028 13.1609 60.293 14.6729C61.8214 16.1696 63.0043 17.9828 63.7588 19.9844L63.8926 20.3379C64.5001 22.0037 64.9079 23.8703 65.0645 26.3398L65.0947 26.8789V26.8848C65.218 29.6555 65.25 30.5609 65.25 37.5C65.25 44.4392 65.218 45.3446 65.0947 48.1123V48.1182C64.9573 51.0452 64.4855 53.1394 63.7598 55.0146L63.7578 55.0195C63.0001 56.9637 61.9658 58.6553 60.3105 60.3105L60.3096 60.3096C58.8115 61.8351 56.9989 63.0158 54.9971 63.7676L54.9961 63.7666C53.1222 64.4925 51.0257 64.9581 48.1182 65.0947H48.1123C45.3414 65.218 44.4393 65.25 37.5 65.25C30.5609 65.25 29.6555 65.218 26.8848 65.0947H26.8818C24.1356 64.969 22.1243 64.5462 20.335 63.8926L19.9805 63.7588C18.0322 63.0032 16.3404 61.9639 14.6895 60.3096C13.0345 58.6545 11.9998 56.9635 11.2422 55.0195V55.0186C10.511 53.139 10.0426 51.0425 9.90527 48.1182V48.1123C9.78198 45.3446 9.75 44.4389 9.75 37.5029C9.75 30.561 9.782 29.6555 9.90527 26.8818V26.8779C10.0393 23.9565 10.5111 21.8563 11.2422 19.9805H11.2432C11.9978 17.9805 13.1796 16.1686 14.707 14.6729C16.1965 13.1617 17.996 11.9921 19.9814 11.2432V11.2422C21.8612 10.511 23.9582 10.0426 26.8857 9.90527H26.8906C29.6576 9.78201 30.5664 9.751 37.4932 9.75098V9.75H37.5ZM32.9648 18.8457C30.1151 18.8581 29.1854 18.8947 27.3018 18.9814C25.0622 19.0848 23.9548 19.4466 23.2822 19.709L23.2783 19.7109C22.3744 20.0614 21.7918 20.4416 21.123 21.1104C20.4532 21.7802 20.0697 22.3663 19.7197 23.2666L19.7188 23.2695C19.4567 23.9415 19.0936 25.0519 18.9902 27.292C18.8715 29.9257 18.8467 30.687 18.8467 37.4873C18.8467 44.2896 18.8714 45.0559 18.9902 47.6914H18.9912C19.0915 49.9267 19.4554 51.038 19.7168 51.7119L19.7285 51.7412C19.9874 52.4363 20.378 53.0738 20.8789 53.6182L21.1006 53.8457L21.1221 53.8662L21.1426 53.8867C21.6603 54.4173 22.2753 54.8417 22.9531 55.1367L23.2471 55.2549L23.2822 55.2686C23.9545 55.5308 25.0612 55.8925 27.2988 55.9961C29.9355 56.1149 30.7063 56.1445 37.5029 56.1445C42.6003 56.1445 44.3065 56.1275 45.9531 56.0693L47.7041 55.9961C49.9471 55.8925 51.055 55.5301 51.7158 55.2705L51.7256 55.2666C52.6293 54.9162 53.2112 54.5359 53.8799 53.8672L53.9014 53.8457C54.508 53.2551 54.976 52.5375 55.2715 51.7441L55.2764 51.7305L55.2822 51.7178C55.545 51.038 55.9085 49.9285 56.0088 47.6943L56.0098 47.6914C56.1316 45.0577 56.1572 44.2891 56.1572 37.4932C56.1572 30.6975 56.1316 29.9327 56.0098 27.2988L56.0088 27.2959C55.9897 26.8714 55.9583 26.4876 55.9229 26.1396C55.6638 26.6934 55.3087 27.204 54.8682 27.6445C53.8725 28.64 52.5222 29.1991 51.1143 29.1992C50.7892 29.1992 50.4655 29.1683 50.1475 29.1094C51.7656 31.5869 52.6465 34.4995 52.6465 37.502C52.6464 41.5307 51.0618 45.3976 48.2354 48.2686C45.4088 51.1396 41.5665 52.7838 37.5381 52.8467C35.5028 52.8784 33.4814 52.505 31.5918 51.748C29.7023 50.9911 27.9817 49.8665 26.5312 48.4385C25.0807 47.0104 23.9289 45.3073 23.1426 43.4297C22.3564 41.5523 21.9512 39.5373 21.9512 37.502C21.9512 35.4664 22.3563 33.4508 23.1426 31.5732C23.9288 29.6958 25.0809 27.9935 26.5312 26.5654C27.9818 25.1374 29.7022 24.0118 31.5918 23.2549C33.4814 22.498 35.5028 22.1245 37.5381 22.1562C40.5357 22.203 43.4303 23.1254 45.8799 24.7773C45.8302 24.4847 45.8037 24.1879 45.8037 23.8896C45.8037 23.1924 45.9412 22.5016 46.208 21.8574C46.4749 21.2132 46.8663 20.6278 47.3594 20.1348C47.7976 19.6965 48.3086 19.3386 48.8691 19.0771C48.5187 19.0411 48.132 19.0104 47.7041 18.9912L47.7012 18.9902C45.0684 18.8684 44.3045 18.8467 37.5029 18.8467H32.9648V18.8457ZM37.5029 31.249C35.8451 31.2491 34.2552 31.9078 33.083 33.0801C31.9108 34.2524 31.252 35.8422 31.252 37.5L31.2598 37.8096C31.3363 39.3547 31.984 40.8208 33.083 41.9199C34.2552 43.0922 35.8451 43.7509 37.5029 43.751C38.3238 43.751 39.1371 43.5895 39.8955 43.2754C40.6539 42.9612 41.3434 42.5004 41.9238 41.9199C42.504 41.3396 42.9642 40.6507 43.2783 39.8926C43.5925 39.1342 43.7539 38.3209 43.7539 37.5C43.7539 36.6791 43.5925 35.8658 43.2783 35.1074C42.9642 34.3493 42.504 33.6604 41.9238 33.0801C41.3434 32.4996 40.6539 32.0388 39.8955 31.7246C39.1371 31.4105 38.3238 31.249 37.5029 31.249Z" fill="white" stroke="#222123" stroke-width="4.5"/>
</svg>
