<svg width="75" height="75" viewBox="0 0 75 75" fill="none" xmlns="http://www.w3.org/2000/svg">
<path d="M27.2275 36.1328C26.9636 36.1325 26.4494 36.135 25.7705 36.5879C25.0417 37.0742 23.8567 38.2667 22.7881 41.251L20.2637 50.3496L20.2627 50.3486C19.818 51.9583 19.681 53.0124 19.6924 53.6797C19.6986 54.043 19.7486 54.2268 19.7773 54.3037C19.8226 54.323 19.9092 54.3545 20.0615 54.3838C20.4531 54.459 20.97 54.4763 21.7461 54.4785C25.0753 54.3364 26.6883 52.0194 26.6885 49.8467C26.6885 49.1808 26.9807 48.5482 27.4883 48.1172C27.996 47.6862 28.6681 47.5002 29.3252 47.6084C30.3625 47.7792 31.4828 47.9113 32.6523 48.0098C32.6491 47.9588 32.6465 47.9068 32.6465 47.8535V47.4316L31.8301 47.4648C31.0132 47.4977 30.2413 47.0884 29.8105 46.3936C29.3798 45.6987 29.3562 44.8254 29.749 44.1084C30.1082 43.4527 30.7431 42.698 31.3125 42.0635C31.9295 41.3758 32.6503 40.6339 33.3252 39.9609C34.0034 39.2846 34.6521 38.6614 35.1299 38.208C35.163 38.1766 35.1949 38.1463 35.2256 38.1172C34.4303 38.1558 33.6453 38.2162 32.8799 38.2969C32.1627 38.3724 31.4518 38.1022 30.9658 37.5693C30.1958 36.725 29.6306 36.437 29.208 36.3057C28.7132 36.152 28.204 36.1368 27.252 36.1348V36.1338C27.2438 36.1338 27.2357 36.1329 27.2275 36.1328ZM47.6777 36.1338L47.6787 36.1348C46.7269 36.1367 46.2183 36.152 45.7236 36.3057C45.3011 36.437 44.7359 36.7249 43.9658 37.5693C43.48 38.102 42.7698 38.3723 42.0527 38.2969C41.2872 38.2162 40.5015 38.1568 39.7061 38.1182C39.7364 38.1469 39.768 38.1758 39.7998 38.2061C40.2774 38.6593 40.926 39.2824 41.6045 39.959C42.2798 40.6324 43.0007 41.3754 43.6182 42.0635C44.1878 42.6983 44.8224 43.4528 45.1816 44.1084C45.5745 44.8254 45.5519 45.6986 45.1211 46.3936C44.6903 47.0885 43.9185 47.4977 43.1016 47.4648L42.2852 47.4316V47.8535C42.2852 47.9068 42.2816 47.9588 42.2783 48.0098C43.448 47.9113 44.5689 47.7792 45.6064 47.6084C46.2635 47.5003 46.9347 47.6863 47.4424 48.1172C47.9501 48.5482 48.2432 49.1807 48.2432 49.8467C48.2433 52.0194 49.8555 54.3362 53.1846 54.4785C53.9608 54.4763 54.4775 54.459 54.8691 54.3838C55.0212 54.3546 55.1079 54.323 55.1533 54.3037C55.182 54.227 55.233 54.0435 55.2393 53.6797C55.2507 53.0122 55.1122 51.9575 54.667 50.3467V50.3457L52.1465 41.2627C51.0769 38.2703 49.8919 37.0749 49.1621 36.5879C48.482 36.1341 47.9667 36.1325 47.7031 36.1328C47.6947 36.1329 47.6862 36.1338 47.6777 36.1338ZM66.9766 23.7676C66.9765 25.9584 65.9675 27.901 64.6299 29.2646C64.0097 29.8969 63.2657 30.4533 62.4443 30.8682C62.6893 33.4533 62.7936 35.9118 62.8301 37.7061H62.8291C62.8295 37.7209 62.831 37.7361 62.8311 37.751C62.8355 38.6471 62.8398 39.3872 62.8447 40.4121C62.8448 40.4223 62.8438 40.4331 62.8438 40.4434C62.8216 42.9684 62.9526 47.4597 62.7285 51.5371C62.6154 53.5949 62.4086 55.6632 62.0225 57.4463C61.6581 59.1288 61.0528 60.9734 59.8633 62.1924C59.5617 62.5013 59.1782 62.7179 58.7578 62.8164C54.0453 63.9204 45.6542 64.3877 37.4678 64.3906H37.4648C29.2781 64.3877 20.8864 63.9204 16.1738 62.8164C15.7535 62.7178 15.3699 62.5013 15.0684 62.1924C13.8788 60.9734 13.2735 59.1288 12.9092 57.4463C12.5231 55.6632 12.3162 53.5949 12.2031 51.5371C11.9791 47.4597 12.11 42.9684 12.0879 40.4434C12.0878 40.4336 12.0878 40.4238 12.0879 40.4141C12.0923 39.388 12.0962 38.6456 12.1006 37.751L12.1025 37.6621C12.14 35.8724 12.2433 33.4326 12.4863 30.8682C11.6652 30.4533 10.9218 29.8967 10.3018 29.2646C8.96408 27.901 7.95517 25.9583 7.95508 23.7676V21.4209C7.95508 21.3975 7.95533 21.374 7.95605 21.3506C7.97698 20.6827 8.23092 20.0894 8.39844 19.7393C8.59668 19.325 8.85279 18.8963 9.12695 18.4824C9.67855 17.6497 10.4074 16.7181 11.1846 15.8184C12.6575 14.1132 14.5801 12.2066 16.0889 11.2812C16.1005 11.2737 16.1122 11.2662 16.124 11.2588C16.1378 11.2505 16.1514 11.2416 16.165 11.2334V11.2354C16.4504 11.0648 16.7765 10.9527 17.1289 10.9219C19.3568 10.7269 29.8884 10.6091 37.4648 10.6084C45.111 10.6073 50.2613 10.6532 57.6846 10.915C58.0662 10.9285 58.4386 11.0378 58.7666 11.2334C60.2865 12.14 62.2492 14.0842 63.7471 15.8184C64.5242 16.7181 65.2531 17.6497 65.8047 18.4824C66.0788 18.8963 66.335 19.3249 66.5332 19.7393C66.7007 20.0894 66.9537 20.6828 66.9746 21.3506C66.9753 21.374 66.9766 21.3975 66.9766 21.4209V23.7676Z" fill="white" stroke="#222123" stroke-width="4.53654" stroke-linejoin="round"/>
</svg>
