<svg width="75" height="75" viewBox="0 0 75 75" fill="none" xmlns="http://www.w3.org/2000/svg">
<path d="M37 10.75C40.7511 10.75 44.2974 11.4637 47.6152 12.9053C50.8884 14.3274 53.7713 16.2772 56.2471 18.7529C58.7228 21.2287 60.6726 24.1116 62.0947 27.3848C63.5363 30.7026 64.25 34.2489 64.25 38C64.25 41.7134 63.5345 45.247 62.0967 48.5791C60.6751 51.8733 58.7253 54.7689 56.2471 57.2471C53.7713 59.7228 50.8884 61.6726 47.6152 63.0947C44.2974 64.5363 40.7511 65.25 37 65.25C33.2866 65.25 29.753 64.5345 26.4209 63.0967C23.1267 61.6751 20.2311 59.7253 17.7529 57.2471C15.2747 54.7689 13.3249 51.8733 11.9033 48.5791C10.4655 45.247 9.75 41.7134 9.75 38C9.75 34.2489 10.4637 30.7026 11.9053 27.3848C13.3274 24.1116 15.2772 21.2287 17.7529 18.7529C20.2311 16.2747 23.1267 14.3249 26.4209 12.9033C29.753 11.4655 33.2866 10.75 37 10.75ZM35.3584 50.25C35.6195 50.9193 35.9022 51.5705 36.21 52.2021C36.4572 52.7096 36.7216 53.21 37 53.7051C37.2784 53.21 37.5428 52.7096 37.79 52.2021C38.0978 51.5705 38.3805 50.9193 38.6416 50.25H35.3584ZM24.1963 50.25C24.6802 50.7687 25.1943 51.2601 25.7393 51.7236C25.7844 51.762 25.8305 51.7991 25.876 51.8369C25.7025 51.3134 25.5398 50.7844 25.3877 50.25H24.1963ZM48.6123 50.25C48.4602 50.7845 48.2965 51.3133 48.123 51.8369C48.1687 51.7989 48.2154 51.7622 48.2607 51.7236C48.8057 51.2601 49.3198 50.7687 49.8037 50.25H48.6123ZM50.3994 35.2959C50.4666 36.1698 50.5 37.0716 50.5 38C50.5 38.9284 50.4666 39.8302 50.3994 40.7041C50.3982 40.7194 50.3967 40.7347 50.3955 40.75H54.54C54.5666 40.5809 54.5908 40.4126 54.6123 40.2451C54.7035 39.5337 54.75 38.7857 54.75 38C54.75 37.2143 54.7035 36.4663 54.6123 35.7549C54.5908 35.5874 54.5666 35.4191 54.54 35.25H50.3955C50.3967 35.2653 50.3982 35.2806 50.3994 35.2959ZM33.0869 35.6416C33.0292 36.3926 33 37.1785 33 38C33 38.8215 33.0292 39.6074 33.0869 40.3584C33.0969 40.4885 33.1094 40.6192 33.1211 40.75H40.8789C40.8906 40.6192 40.9031 40.4885 40.9131 40.3584C40.9708 39.6074 41 38.8215 41 38C41 37.1785 40.9708 36.3926 40.9131 35.6416C40.9031 35.5115 40.8906 35.3808 40.8789 35.25H33.1211C33.1094 35.3808 33.0969 35.5115 33.0869 35.6416ZM19.3877 35.7549C19.2965 36.4663 19.25 37.2143 19.25 38C19.25 38.7857 19.2965 39.5337 19.3877 40.2451C19.4092 40.4126 19.4334 40.5809 19.46 40.75H23.6045C23.6033 40.7347 23.6018 40.7194 23.6006 40.7041C23.5334 39.8302 23.5 38.9284 23.5 38C23.5 37.0716 23.5334 36.1698 23.6006 35.2959C23.6018 35.2806 23.6033 35.2653 23.6045 35.25H19.46C19.4334 35.4191 19.4092 35.5874 19.3877 35.7549ZM48.123 24.1621C48.2966 24.686 48.4601 25.2152 48.6123 25.75H49.8037C49.3198 25.2313 48.8057 24.7399 48.2607 24.2764C48.2153 24.2377 48.1689 24.2002 48.123 24.1621ZM37 22.2939C36.7215 22.7893 36.4573 23.2901 36.21 23.7979C35.9022 24.4295 35.6195 25.0807 35.3584 25.75H38.6416C38.3805 25.0807 38.0978 24.4295 37.79 23.7979C37.5427 23.2901 37.2785 22.7893 37 22.2939ZM25.7393 24.2764C25.1943 24.7399 24.6802 25.2313 24.1963 25.75H25.3877C25.5399 25.2153 25.7024 24.6859 25.876 24.1621C25.8303 24.2001 25.7845 24.2379 25.7393 24.2764Z" fill="#222123" stroke="#222123" stroke-width="4.5"/>
<circle cx="38" cy="38" r="11" fill="#222123"/>
<path d="M37 63C33.5833 63 30.3542 62.3438 27.3125 61.0312C24.2708 59.7188 21.6146 57.9271 19.3438 55.6562C17.0729 53.3854 15.2812 50.7292 13.9688 47.6875C12.6562 44.6458 12 41.4167 12 38C12 34.5417 12.6562 31.3021 13.9688 28.2812C15.2812 25.2604 17.0729 22.6146 19.3438 20.3438C21.6146 18.0729 24.2708 16.2812 27.3125 14.9688C30.3542 13.6562 33.5833 13 37 13C40.4583 13 43.6979 13.6562 46.7188 14.9688C49.7396 16.2812 52.3854 18.0729 54.6562 20.3438C56.9271 22.6146 58.7188 25.2604 60.0312 28.2812C61.3438 31.3021 62 34.5417 62 38C62 41.4167 61.3438 44.6458 60.0312 47.6875C58.7188 50.7292 56.9271 53.3854 54.6562 55.6562C52.3854 57.9271 49.7396 59.7188 46.7188 61.0312C43.6979 62.3438 40.4583 63 37 63ZM37 57.875C38.0833 56.375 39.0208 54.8125 39.8125 53.1875C40.6042 51.5625 41.25 49.8333 41.75 48H32.25C32.75 49.8333 33.3958 51.5625 34.1875 53.1875C34.9792 54.8125 35.9167 56.375 37 57.875ZM30.5 56.875C29.75 55.5 29.0938 54.0729 28.5312 52.5938C27.9688 51.1146 27.5 49.5833 27.125 48H19.75C20.9583 50.0833 22.4688 51.8958 24.2812 53.4375C26.0938 54.9792 28.1667 56.125 30.5 56.875ZM43.5 56.875C45.8333 56.125 47.9062 54.9792 49.7188 53.4375C51.5312 51.8958 53.0417 50.0833 54.25 48H46.875C46.5 49.5833 46.0312 51.1146 45.4688 52.5938C44.9062 54.0729 44.25 55.5 43.5 56.875ZM17.625 43H26.125C26 42.1667 25.9062 41.3438 25.8438 40.5312C25.7812 39.7188 25.75 38.875 25.75 38C25.75 37.125 25.7812 36.2812 25.8438 35.4688C25.9062 34.6562 26 33.8333 26.125 33H17.625C17.4167 33.8333 17.2604 34.6562 17.1562 35.4688C17.0521 36.2812 17 37.125 17 38C17 38.875 17.0521 39.7188 17.1562 40.5312C17.2604 41.3438 17.4167 42.1667 17.625 43ZM31.125 43H42.875C43 42.1667 43.0938 41.3438 43.1562 40.5312C43.2188 39.7188 43.25 38.875 43.25 38C43.25 37.125 43.2188 36.2812 43.1562 35.4688C43.0938 34.6562 43 33.8333 42.875 33H31.125C31 33.8333 30.9062 34.6562 30.8438 35.4688C30.7812 36.2812 30.75 37.125 30.75 38C30.75 38.875 30.7812 39.7188 30.8438 40.5312C30.9062 41.3438 31 42.1667 31.125 43ZM47.875 43H56.375C56.5833 42.1667 56.7396 41.3438 56.8438 40.5312C56.9479 39.7188 57 38.875 57 38C57 37.125 56.9479 36.2812 56.8438 35.4688C56.7396 34.6562 56.5833 33.8333 56.375 33H47.875C48 33.8333 48.0938 34.6562 48.1562 35.4688C48.2188 36.2812 48.25 37.125 48.25 38C48.25 38.875 48.2188 39.7188 48.1562 40.5312C48.0938 41.3438 48 42.1667 47.875 43ZM46.875 28H54.25C53.0417 25.9167 51.5312 24.1042 49.7188 22.5625C47.9062 21.0208 45.8333 19.875 43.5 19.125C44.25 20.5 44.9062 21.9271 45.4688 23.4062C46.0312 24.8854 46.5 26.4167 46.875 28ZM32.25 28H41.75C41.25 26.1667 40.6042 24.4375 39.8125 22.8125C39.0208 21.1875 38.0833 19.625 37 18.125C35.9167 19.625 34.9792 21.1875 34.1875 22.8125C33.3958 24.4375 32.75 26.1667 32.25 28ZM19.75 28H27.125C27.5 26.4167 27.9688 24.8854 28.5312 23.4062C29.0938 21.9271 29.75 20.5 30.5 19.125C28.1667 19.875 26.0938 21.0208 24.2812 22.5625C22.4688 24.1042 20.9583 25.9167 19.75 28Z" fill="white"/>
</svg>
