<svg width="1394" height="534" viewBox="0 0 1394 534" fill="none" xmlns="http://www.w3.org/2000/svg">
<path d="M104.515 174.128C106.074 114.686 131.113 85.7035 149.515 77.1283C178.746 63.5066 240.515 77.1283 274.515 77.1283C308.515 77.1283 307.515 38.1283 354.515 43.1283C401.515 48.1283 418.515 91.1283 456.515 93.1283C494.515 95.1283 489.515 82.1283 530.515 76.1283C571.515 70.1283 599.515 106.128 649.515 106.128C699.515 106.128 715.515 53.1283 781.515 51.1283C847.515 49.1283 889.515 104.219 931.515 106.128C953.515 107.128 951.515 96.1283 981.515 96.1283C1011.51 96.1283 1031.51 115.128 1069.51 116.128C1107.51 117.128 1128.33 65.3169 1186.51 67.1283C1244.14 68.9224 1253.83 129.19 1299.51 128.128C1345.04 127.07 1363.51 149.128 1366.51 176.128C1369.51 203.128 1356.51 231.128 1366.51 263.128C1376.51 295.128 1385.99 315.5 1358 357C1330.86 397.243 1302.72 387.015 1273.5 421.128C1245.44 453.891 1205.5 496.128 1126.5 487.128C1047.5 478.128 1043.5 444.128 996.5 444.128C949.5 444.128 949.5 449.686 911.06 449.686C878.06 449.686 845.412 423.079 821.5 425.128C786.5 428.128 770.152 468.757 739.152 473.757C684.152 482.628 632.066 437.703 599.515 443.128C563.515 449.128 515.515 507.128 460.515 503.128C405.515 499.128 362.515 436.128 343.515 433.128C324.515 430.128 319.074 435.686 294.074 438.686C269.074 441.686 252.515 427.128 229.515 425.128C206.515 423.128 159.899 443.128 104.515 411.128C59.5147 385.128 73.5147 343.128 72.5147 322.128C71.5147 301.128 56.321 296.128 59.5146 263.128C62.5147 232.128 103.713 204.675 104.515 174.128Z" fill="#EEF49A"/>
<path d="M332.642 510.431C299.642 492.431 296.642 473.449 321.642 458.431C346.642 443.413 373.311 477.065 372.642 497.431C372.293 508.019 359.042 524.831 332.642 510.431Z" fill="#EEF49A"/>
<path d="M978.386 497.399C949.675 495.003 942.083 480.089 944.386 472.399C946.541 465.203 966.152 454.833 986.696 457.399C1009.79 460.284 1011.65 500.175 978.386 497.399Z" fill="#EEF49A"/>
<path d="M1030.02 489.61C1018.02 491.208 1013.17 482.719 1013.7 476.399C1014.7 464.399 1022.7 460.399 1033.02 465.61C1045.7 472.003 1045.72 487.519 1030.02 489.61Z" fill="#EEF49A"/>
<path d="M652.074 82.6857C632.874 85.8857 602.936 73.6858 604.074 61.6858C606.92 31.6858 667.074 26.6857 687.074 43.6857C707.074 60.6857 676.074 78.6857 652.074 82.6857Z" fill="#EEF49A"/>
<path d="M27.0743 215.686C16.0743 206.423 19.3507 175.192 27.0743 159.686C34.7979 144.179 59.1226 119.648 77.0743 142.686C84.4053 152.094 83.1301 171.686 80.0743 189.686C78.029 201.734 50.3759 235.308 27.0743 215.686Z" fill="#EEF49A"/>
<path d="M1258.47 70.9625C1250.7 83.7892 1277.27 105.786 1291.47 109.963C1308.47 114.963 1330.26 108.682 1330.47 93.9625C1330.64 82.3277 1270.25 51.5404 1258.47 70.9625Z" fill="#EEF49A"/>
<path d="M1066.17 278.686C1057.5 272.352 1033.66 264.686 1029.17 299.686C1024.17 338.686 1068.17 334.686 1071.17 328.686M1114.17 318.686C1127.84 311.019 1151.19 292.709 1144.17 280.686C1134.16 263.542 1114.5 264.312 1104.17 282.686C1090.7 306.649 1113.35 355.982 1160.17 320.686" stroke="#222123" stroke-width="58" stroke-linecap="round"/>
<path d="M1207.17 198.686C1210.06 201.896 1247.62 254.843 1239.17 307.686C1233.17 345.2 1191.12 329.699 1190.17 307.686C1188.77 275.099 1230.88 277.892 1233.17 281.686" stroke="#222123" stroke-width="58" stroke-linecap="round"/>
<path d="M541.403 330.012C529.597 298.783 531.371 231.523 572.403 227.012C622.986 221.451 623.347 288.122 608.402 334.012" stroke="#222123" stroke-width="58" stroke-linecap="round"/>
<path d="M655.074 285.686C650.074 314.686 656.074 327.686 658.074 332.686" stroke="#222123" stroke-width="58" stroke-linecap="round"/>
<circle cx="666.074" cy="249.686" r="13" fill="white" stroke="#222123" stroke-width="32"/>
<circle cx="992.074" cy="251.686" r="13" fill="white" stroke="#222123" stroke-width="32"/>
<path d="M697.074 328.686C691.015 309.97 692.468 277.918 722.075 276.686C750.891 275.486 742.586 319.644 740.075 331.685" stroke="#222123" stroke-width="58" stroke-linecap="round"/>
<path d="M781.025 306.346C795.341 307.322 821.809 308.824 819.418 287.612C816.43 261.096 780.041 272.021 776.129 287.663C771.966 304.305 784.057 349.978 832.842 328.414" stroke="#222123" stroke-width="58" stroke-linecap="round"/>
<path d="M889.451 272.799C877.121 271.998 865.654 275.149 861.451 291.799C856.575 311.118 900.451 293.799 911.451 303.799C922.451 313.799 905.451 344.799 866.451 329.799" stroke="#222123" stroke-width="58" stroke-linecap="round"/>
<path d="M950.074 219.686C940.074 246.686 940.971 300.886 956.171 333.686" stroke="#222123" stroke-width="58" stroke-linecap="round"/>
<path d="M988.074 288.686C987.408 295.352 988.074 320.686 999.074 330.686" stroke="#222123" stroke-width="58" stroke-linecap="round"/>
<path d="M1066.17 278.686C1057.5 272.352 1033.66 264.686 1029.17 299.686C1024.17 338.686 1068.17 334.686 1071.17 328.686M1114.17 318.686C1127.84 311.019 1151.19 292.709 1144.17 280.686C1134.16 263.542 1114.5 264.312 1104.17 282.686C1090.7 306.649 1113.35 355.982 1160.17 320.686" stroke="white" stroke-width="26" stroke-linecap="round"/>
<path d="M1207.17 198.686C1210.06 201.896 1247.62 254.843 1239.17 307.686C1233.17 345.2 1191.12 329.699 1190.17 307.686C1188.77 275.099 1230.88 277.892 1233.17 281.686" stroke="white" stroke-width="26" stroke-linecap="round"/>
<path d="M541.403 330.012C529.597 298.783 531.371 231.523 572.403 227.012C622.986 221.451 623.347 288.122 608.402 334.012" stroke="white" stroke-width="26" stroke-linecap="round"/>
<path d="M655.074 285.686C650.074 314.686 656.074 327.686 658.074 332.686" stroke="white" stroke-width="26" stroke-linecap="round"/>
<circle cx="666.074" cy="249.686" r="13" fill="white"/>
<circle cx="992.074" cy="251.686" r="13" fill="white"/>
<path d="M697.074 328.686C691.015 309.97 692.468 277.918 722.075 276.686C750.891 275.486 742.586 319.644 740.075 331.685" stroke="white" stroke-width="26" stroke-linecap="round"/>
<path d="M781.025 306.346C795.341 307.322 821.809 308.824 819.418 287.612C816.43 261.096 780.041 272.021 776.129 287.663C771.966 304.305 784.057 349.978 832.842 328.414" stroke="white" stroke-width="26" stroke-linecap="round"/>
<path d="M889.451 272.799C877.121 271.998 865.654 275.149 861.451 291.799C856.575 311.118 900.451 293.799 911.451 303.799C922.451 313.799 905.451 344.799 866.451 329.799" stroke="white" stroke-width="26" stroke-linecap="round"/>
<path d="M950.074 219.686C940.074 246.686 940.971 300.886 956.171 333.686" stroke="white" stroke-width="26" stroke-linecap="round"/>
<path d="M988.074 288.686C987.408 295.352 988.074 320.686 999.074 330.686" stroke="white" stroke-width="26" stroke-linecap="round"/>
<path d="M225.51 160.995C289.276 201.019 390.195 226.225 451.405 222.051C450.082 257.605 427.139 311.83 373.391 319.056L338.22 318.873C318.835 317.777 295.849 314.671 280.22 307.339L249.746 289.78C199.418 257.53 208.742 192.373 225.51 160.995Z" fill="#CEE078"/>
<path d="M380.993 297.546L409.685 272.928C402.512 266.326 353.274 229.763 348.581 207.726C343.384 208.334 340.215 214.851 336.428 208.521C336.332 208.329 336.227 208.133 336.094 207.933C335.607 207.196 334.75 206.4 332.613 205.482C332.126 206.036 331.62 206.658 331.098 207.341L325.856 203.655C297.462 212.323 270.291 214.066 235.693 236.978C240.065 254.505 244.593 262.064 258.384 269.325C266.627 261.922 300.564 237.48 323.083 220.152C311.228 241.66 296.771 276.715 292.545 290.948L335.771 299.408C337.043 282.551 338.477 256.867 340.233 234.226C349.247 258.361 369.248 286.946 380.993 297.546Z" fill="#98CE5A"/>
<path d="M310.852 316.655C417.996 340.933 448.45 266.52 449.84 227.844L419.313 225.808C416.921 253.821 388.413 305.749 315 289.807C247.793 275.213 233.658 211.785 250.193 176.989L221.05 166.004C209.75 204.315 188.313 288.888 310.852 316.655Z" fill="#428C6F"/>
<path d="M206.116 250.184L211.453 253.038L241.927 270.598C241.927 270.598 229.673 300.191 209.094 300.377C183.134 300.611 157.266 276.397 160.586 254.919C163.905 233.441 194.244 236.617 206.116 250.184Z" fill="#428C6F"/>
<path d="M226.65 244.859C233.914 260.007 237.604 265.634 249.732 278.332L220.682 289.027C225.58 278.821 225.408 268.361 213.779 269.365L226.65 244.859Z" fill="#325D55"/>
<path d="M376.676 335.001L372.957 315.324L337.661 316.158C337.661 316.158 327.609 360.908 345.292 371.435C367.599 384.716 405.751 376.264 414.214 356.247C421.561 338.871 394.867 330.07 376.676 335.001Z" fill="#428C6F"/>
<path d="M338.72 313.308C352.829 314.273 366.186 312.006 377.009 309.203L369.663 335.058C361.547 324.328 349.452 329.416 342.636 340.541L338.72 313.308Z" fill="#325D55"/>
<path d="M225.511 160.995C289.277 201.019 390.196 226.225 451.405 222.052C452.738 277.241 406.599 306.982 375.034 317.761L376.484 334.014C397.731 329.444 427.161 340.448 415.797 357.11C408.729 367.473 365.707 383.839 343.429 373.108C330.651 366.953 336.502 332.739 338.774 320.956C310.73 321.152 273.588 310.428 243.075 281.167C243.075 281.167 214.381 307.725 194.975 300.876C177.137 294.581 153.513 268.068 165.87 250.767C181.213 229.283 204.083 243.055 212.063 262.415L223.397 256.453C215.627 230.004 206.871 190.68 225.511 160.995Z" stroke="#222123" stroke-width="16" stroke-linecap="round" stroke-linejoin="round"/>
<path d="M348.203 257.753C346.116 264.013 350.152 267.776 358.588 270.057C367.025 272.337 377.071 271.489 379.165 263.742C380.885 257.377 374.61 248.623 365.97 246.521C357.482 244.456 350.107 252.041 348.203 257.753Z" fill="#222123"/>
<path d="M329.415 267.133C321.76 272.225 310.734 267.263 308.568 259.944" stroke="#222123" stroke-width="16" stroke-linecap="round"/>
<path d="M269.92 228.413C267.646 235.186 271.088 240.533 277.902 244.249C285.279 248.272 292.731 247.231 296.194 240.981C299.709 234.635 297.739 225.819 289.892 222.466C281.502 218.881 272.194 221.641 269.92 228.413Z" fill="#222123"/>
</svg>
