<svg width="306" height="243" viewBox="0 0 306 243" fill="none" xmlns="http://www.w3.org/2000/svg">
<g clip-path="url(#clip0_159_629)">
<path d="M224.853 29.2689C165.718 66.387 72.1276 89.7622 15.3634 85.8918C16.59 118.863 37.8674 169.15 87.7116 175.852L120.328 175.682C138.306 174.665 159.623 171.786 174.116 164.986L202.377 148.702C249.051 118.794 240.404 58.3685 224.853 29.2689Z" fill="#CEE078"/>
<path d="M80.6622 155.904L54.0539 133.074C60.7052 126.951 106.368 93.0431 110.72 72.6063C115.54 73.1704 118.478 79.2143 121.991 73.3438C122.08 73.1653 122.177 72.9838 122.3 72.7981C122.752 72.1153 123.547 71.3767 125.528 70.5251C125.98 71.0394 126.449 71.6157 126.933 72.2494L131.795 68.8313C158.127 76.87 183.325 78.4861 215.41 99.7338C211.356 115.989 207.156 122.998 194.367 129.732C186.722 122.867 155.25 100.2 134.367 84.13C145.361 104.076 158.768 136.586 162.687 149.785L122.6 157.63C121.42 141.997 120.09 118.179 118.462 97.1822C110.102 119.564 91.5539 146.074 80.6622 155.904Z" fill="#98CE5A"/>
<path d="M145.709 173.625C46.3465 196.14 18.1041 127.131 16.8148 91.2636L45.1248 89.3756C47.3432 115.354 73.781 163.511 141.862 148.727C204.189 135.193 217.297 76.3714 201.964 44.1018L228.99 33.9148C239.47 69.4438 259.35 147.875 145.709 173.625Z" fill="#428C6F"/>
<path d="M242.84 111.981L237.89 114.628L209.629 130.913C209.629 130.913 220.993 158.357 240.077 158.529C264.153 158.746 288.141 136.29 285.063 116.372C281.985 96.4539 253.849 99.3993 242.84 111.981Z" fill="#428C6F"/>
<path d="M223.797 107.043C217.06 121.091 213.638 126.31 202.391 138.085L229.331 148.004C224.789 138.538 224.948 128.838 235.733 129.77L223.797 107.043Z" fill="#325D55"/>
<path d="M84.665 190.639L88.1139 172.391L120.847 173.165C120.847 173.165 130.169 214.665 113.771 224.428C93.0831 236.744 57.7023 228.906 49.8532 210.342C43.0398 194.228 67.7951 186.067 84.665 190.639Z" fill="#428C6F"/>
<path d="M119.865 170.521C106.78 171.416 94.3932 169.314 84.356 166.714L91.1689 190.691C98.6953 180.74 109.912 185.459 116.233 195.777L119.865 170.521Z" fill="#325D55"/>
<path d="M224.853 29.2689C165.718 66.387 72.1274 89.7621 15.3632 85.8917C14.1267 137.074 56.9154 164.655 86.1883 174.651L84.8428 189.723C65.1394 185.485 37.8467 195.69 48.385 211.142C54.9395 220.753 94.8374 235.93 115.498 225.978C127.348 220.27 121.921 188.541 119.815 177.614C145.823 177.795 180.267 167.85 208.564 140.714C208.564 140.714 235.174 165.344 253.171 158.992C269.714 153.154 291.622 128.567 280.163 112.522C265.933 92.5977 244.724 105.37 237.324 123.324L226.813 117.795C234.019 93.2666 242.139 56.7982 224.853 29.2689Z" stroke="#222123" stroke-width="14.8381" stroke-linecap="round" stroke-linejoin="round"/>
<path d="M111.071 119C113.006 124.806 109.263 128.296 101.439 130.411C93.6156 132.526 84.2994 131.739 82.3575 124.555C80.7619 118.652 86.5815 110.534 94.5937 108.584C102.466 106.669 109.305 113.703 111.071 119Z" fill="#222123"/>
<path d="M128.495 127.699C135.593 132.421 145.819 127.82 147.827 121.032" stroke="#222123" stroke-width="14.8381" stroke-linecap="round"/>
<path d="M183.669 91.7918C185.778 98.0725 182.586 103.031 176.266 106.478C169.425 110.208 162.514 109.243 159.303 103.447C156.043 97.5614 157.87 89.3859 165.147 86.2766C172.928 82.9518 181.559 85.5111 183.669 91.7918Z" fill="#222123"/>
</g>
<defs>
<clipPath id="clip0_159_629">
<rect width="306" height="243" fill="white"/>
</clipPath>
</defs>
</svg>
