<svg width="3000" height="169" viewBox="0 0 3000 169" fill="none" xmlns="http://www.w3.org/2000/svg">
<path d="M2.16013e-05 169C-0.000134801 141.5 0.000629354 123 4.37982e-05 95.21C95 95.21 116 121 239.5 121C282.302 121 344 86 402 86C466.678 86 492.245 127.4 528.5 128.5C609 130.943 677 57 773.5 65.5C832.73 70.7172 899.594 110.874 955.5 105.5C989.344 102.247 989.471 88.8632 1028 90.479C1095.5 93.3096 1135.79 114.106 1149.57 114.106C1204.34 114.106 1202.73 68.0481 1278.45 73.9529C1354.17 79.8578 1381.55 130.639 1442.77 133.001C1503.99 135.363 1495.93 120.011 1561.98 112.925C1628.03 105.839 1673.56 134.258 1753.06 118.829C1832.13 103.483 1824.69 44.4286 1931.01 42.0667C2037.34 39.7048 2105 104.765 2172.66 107.02C2208.1 108.201 2204.88 95.2101 2253.21 95.2101C2301.54 95.2101 2333.76 117.648 2394.98 118.829C2456.19 120.01 2489.72 58.8228 2583.46 60.9621C2676.3 63.0808 2691.9 134.255 2765.5 133.001C2838.85 131.751 2897 95.2101 3000 95.2101V169H2.16013e-05Z" fill="#F38043"/>
<path d="M2766.14 100.23C2840.73 95.7737 2837.61 45.2935 2794.23 39.1669C2773.56 36.2468 2733.98 43.2334 2725.23 66.167C2720.69 78.0896 2729.98 102.39 2766.14 100.23Z" fill="#F38043"/>
<path d="M1626.66 81.1985C1643.48 83.436 1650.29 71.5543 1649.55 62.7084C1648.15 45.9129 1636.93 40.3144 1622.45 47.6075C1604.69 56.5552 1604.66 78.2719 1626.66 81.1985Z" fill="#F38043"/>
<path d="M1666.47 71.9109C1673.75 88.9086 1713.4 96.5591 1735.36 92.8571C1757.33 89.1551 1796.61 68.4048 1774.98 37.7024C1766.15 25.1644 1743.1 16.4318 1718.28 16.4318C1697.1 16.4318 1651.04 35.9043 1666.47 71.9109Z" fill="#F38043"/>
<path d="M1113.24 70.9857C1120.52 87.9834 1143.4 94.0547 1151.24 92.4857C1166.24 89.4857 1174.24 81.4857 1171.74 61.9859C1169.79 46.7739 1160.56 42.4858 1135.74 42.4858C1114.56 42.4858 1107.46 57.4858 1113.24 70.9857Z" fill="#F38043"/>
<path d="M201.368 81.7707C208.65 98.7684 228.126 99.7712 245.867 99.771C261.164 99.7708 289.868 90.7704 287.368 71.2707C285.418 56.0587 260.189 49.7709 235.368 49.7709C214.189 49.7709 195.585 68.2708 201.368 81.7707Z" fill="#F38043"/>
<path d="M161.14 82.0509C162.64 91.0511 171.221 98.182 179.14 97.0508C189.64 95.5509 193.388 89.9531 192.14 82.0508C190.64 72.5507 186.64 66.0509 175.14 66.0509C163.64 66.0509 159.825 74.16 161.14 82.0509Z" fill="#F38043"/>
</svg>
