<svg width="306" height="243" viewBox="0 0 306 243" fill="none" xmlns="http://www.w3.org/2000/svg">
<g clip-path="url(#clip0_128_3860)">
<path d="M78.5185 29.2689C137.654 66.387 231.244 89.7622 288.008 85.8918C286.782 118.863 265.504 169.15 215.66 175.852L183.044 175.682C165.066 174.665 143.749 171.786 129.255 164.986L100.995 148.702C54.3207 118.794 62.9679 58.3685 78.5185 29.2689Z" fill="#CEE078"/>
<path d="M222.71 155.904L249.318 133.074C242.667 126.951 197.004 93.0431 192.652 72.6063C187.832 73.1704 184.894 79.2143 181.381 73.3438C181.292 73.1653 181.195 72.9838 181.072 72.7981C180.62 72.1153 179.825 71.3767 177.844 70.5251C177.391 71.0394 176.923 71.6157 176.439 72.2494L171.577 68.8313C145.245 76.87 120.047 78.4861 87.9618 99.7338C92.0157 115.989 96.2156 122.998 109.004 129.732C116.65 122.867 148.122 100.2 169.005 84.13C158.011 104.076 144.604 136.586 140.685 149.785L180.772 157.63C181.952 141.997 183.282 118.179 184.91 97.1822C193.27 119.564 211.818 146.074 222.71 155.904Z" fill="#98CE5A"/>
<path d="M157.662 173.625C257.025 196.14 285.268 127.131 286.557 91.2636L258.247 89.3756C256.029 115.354 229.591 163.511 161.51 148.727C99.1827 135.193 86.0745 76.3714 101.408 44.1018L74.3818 33.9148C63.9022 69.4438 44.0221 147.875 157.662 173.625Z" fill="#428C6F"/>
<path d="M60.5322 111.981L65.4819 114.628L93.7428 130.913C93.7428 130.913 82.3788 158.357 63.2945 158.529C39.2193 158.746 15.2305 136.29 18.3086 116.372C21.3867 96.4539 49.5231 99.3993 60.5322 111.981Z" fill="#428C6F"/>
<path d="M79.5753 107.043C86.3119 121.091 89.7338 126.31 100.981 138.085L74.0409 148.004C78.5826 138.538 78.4237 128.838 67.6389 129.77L79.5753 107.043Z" fill="#325D55"/>
<path d="M218.707 190.639L215.258 172.391L182.525 173.165C182.525 173.165 173.202 214.665 189.601 224.428C210.289 236.744 245.67 228.906 253.519 210.342C260.332 194.228 235.577 186.067 218.707 190.639Z" fill="#428C6F"/>
<path d="M183.507 170.521C196.592 171.416 208.979 169.314 219.016 166.714L212.203 190.691C204.676 180.74 193.46 185.459 187.139 195.777L183.507 170.521Z" fill="#325D55"/>
<path d="M78.5188 29.2689C137.654 66.387 231.244 89.7621 288.009 85.8917C289.245 137.074 246.456 164.655 217.184 174.651L218.529 189.723C238.232 185.485 265.525 195.69 254.987 211.142C248.432 220.753 208.534 235.93 187.874 225.978C176.023 220.27 181.45 188.541 183.557 177.614C157.549 177.795 123.105 167.85 94.8076 140.714C94.8076 140.714 68.1979 165.344 50.2007 158.992C33.658 153.154 11.7499 128.567 23.2089 112.522C37.4383 92.5977 58.6477 105.37 66.0481 123.324L76.5585 117.795C69.3529 93.2666 61.2328 56.7982 78.5188 29.2689Z" stroke="#222123" stroke-width="14.8381" stroke-linecap="round" stroke-linejoin="round"/>
<path d="M192.301 119C190.365 124.806 194.109 128.296 201.932 130.411C209.756 132.526 219.072 131.739 221.014 124.555C222.61 118.652 216.79 110.534 208.778 108.584C200.906 106.669 194.067 113.703 192.301 119Z" fill="#222123"/>
<path d="M174.877 127.699C167.779 132.421 157.553 127.82 155.545 121.032" stroke="#222123" stroke-width="14.8381" stroke-linecap="round"/>
<path d="M119.703 91.7918C117.594 98.0725 120.786 103.031 127.106 106.478C133.947 110.208 140.858 109.243 144.069 103.447C147.329 97.5614 145.502 89.3859 138.225 86.2766C130.444 82.9518 121.812 85.5111 119.703 91.7918Z" fill="#222123"/>
</g>
<defs>
<clipPath id="clip0_128_3860">
<rect width="306" height="243" fill="white"/>
</clipPath>
</defs>
</svg>
